<svg width="42" height="17" viewBox="0 0 42 17" fill="none" xmlns="http://www.w3.org/2000/svg">
<path d="M10.2515 13.4536H4.60114L3.52692 16.6763H0.100164L5.92243 1.03564H8.90876L14.7633 16.6763H11.3365L10.2515 13.4536ZM5.47126 10.8433H9.38141L7.41559 4.98877L5.47126 10.8433ZM16.2242 16.6763V1.03564H21.0367C22.4117 1.03564 23.6399 1.34717 24.7213 1.97021C25.8098 2.5861 26.6584 3.46696 27.2672 4.61279C27.8759 5.75146 28.1802 7.04769 28.1802 8.50146V9.22119C28.1802 10.675 27.8795 11.9676 27.2779 13.0991C26.6835 14.2306 25.842 15.1079 24.7535 15.731C23.6649 16.354 22.4368 16.6691 21.0689 16.6763H16.2242ZM19.4468 3.646V14.0874H21.0045C22.2649 14.0874 23.2281 13.6756 23.8941 12.8521C24.5601 12.0285 24.9003 10.8504 24.9146 9.31787V8.49072C24.9146 6.90088 24.5852 5.69775 23.9263 4.88135C23.2675 4.05778 22.3043 3.646 21.0367 3.646H19.4468ZM38.6431 12.5728C38.6431 11.964 38.4283 11.4985 37.9986 11.1763C37.5689 10.8468 36.7955 10.5031 35.6783 10.145C34.5611 9.77979 33.6767 9.42171 33.025 9.0708C31.2489 8.11117 30.3609 6.81852 30.3609 5.19287C30.3609 4.34782 30.5972 3.59587 31.0699 2.93701C31.5497 2.271 32.2336 1.75179 33.1216 1.37939C34.0168 1.007 35.0194 0.820801 36.1295 0.820801C37.2466 0.820801 38.2421 1.0249 39.1158 1.43311C39.9895 1.83415 40.6662 2.40348 41.1461 3.14111C41.633 3.87874 41.8765 4.71663 41.8765 5.65479H38.6539C38.6539 4.93864 38.4283 4.38363 37.9771 3.98975C37.5259 3.5887 36.8922 3.38818 36.0758 3.38818C35.288 3.38818 34.6757 3.55648 34.2388 3.89307C33.802 4.22249 33.5836 4.65934 33.5836 5.20361C33.5836 5.71208 33.8378 6.13818 34.3463 6.48193C34.8619 6.82568 35.6174 7.14795 36.6129 7.44873C38.4462 8.00016 39.7818 8.68408 40.6197 9.50049C41.4576 10.3169 41.8765 11.3338 41.8765 12.5513C41.8765 13.9048 41.3645 14.9683 40.3404 15.7417C39.3163 16.508 37.9377 16.8911 36.2047 16.8911C35.0015 16.8911 33.9058 16.6727 32.9175 16.2358C31.9293 15.7918 31.1737 15.1867 30.6509 14.4204C30.1353 13.6541 29.8775 12.7661 29.8775 11.7563H33.1109C33.1109 13.4823 34.1422 14.3452 36.2047 14.3452C36.9709 14.3452 37.5689 14.1912 37.9986 13.8833C38.4283 13.5682 38.6431 13.1313 38.6431 12.5728Z" fill="#E86553"/>
</svg>
