<svg width="35" height="14" viewBox="0 0 35 14" fill="none" xmlns="http://www.w3.org/2000/svg">
<path d="M8.3869 10.7353H3.76385L2.88495 13.372H0.0812359L4.84491 0.575134H7.28827L12.0783 13.372H9.2746L8.3869 10.7353ZM4.47577 8.59955H7.67499L6.06659 3.80951L4.47577 8.59955ZM13.2736 13.372V0.575134H17.2111C18.3361 0.575134 19.341 0.830017 20.2258 1.33978C21.1164 1.84369 21.8107 2.56439 22.3088 3.50189C22.8068 4.43353 23.0558 5.49408 23.0558 6.68353V7.2724C23.0558 8.46185 22.8098 9.51947 22.3176 10.4453C21.8312 11.371 21.1428 12.0888 20.2521 12.5986C19.3615 13.1083 18.3566 13.3661 17.2375 13.372H13.2736ZM15.9103 2.71088V11.2538H17.1848C18.216 11.2538 19.0041 10.9169 19.549 10.2431C20.0939 9.56927 20.3723 8.60541 20.384 7.3515V6.67474C20.384 5.37396 20.1144 4.38959 19.5754 3.72162C19.0363 3.04779 18.2482 2.71088 17.2111 2.71088H15.9103ZM31.6164 10.0146C31.6164 9.51654 31.4406 9.13568 31.089 8.87201C30.7375 8.60248 30.1047 8.32123 29.1906 8.02826C28.2765 7.72943 27.5529 7.43646 27.0197 7.14935C25.5666 6.3642 24.84 5.30658 24.84 3.9765C24.84 3.2851 25.0334 2.66986 25.4201 2.1308C25.8127 1.58588 26.3723 1.16107 27.0988 0.856384C27.8312 0.551697 28.6515 0.399353 29.5598 0.399353C30.4738 0.399353 31.2883 0.566345 32.0031 0.90033C32.718 1.22845 33.2717 1.69427 33.6642 2.29779C34.0627 2.90131 34.2619 3.58685 34.2619 4.35443H31.6252C31.6252 3.76849 31.4406 3.31439 31.0715 2.99213C30.7023 2.664 30.1838 2.49994 29.5158 2.49994C28.8713 2.49994 28.3703 2.63763 28.0129 2.91302C27.6555 3.18256 27.4767 3.53998 27.4767 3.98529C27.4767 4.40131 27.6848 4.74994 28.1008 5.03119C28.5226 5.31244 29.1408 5.57611 29.9553 5.8222C31.4553 6.27338 32.548 6.83295 33.2336 7.50092C33.9191 8.16888 34.2619 9.00092 34.2619 9.99701C34.2619 11.1044 33.843 11.9745 33.0051 12.6074C32.1672 13.2343 31.0392 13.5478 29.6213 13.5478C28.6369 13.5478 27.7404 13.3691 26.9318 13.0117C26.1232 12.6484 25.5051 12.1533 25.0773 11.5263C24.6555 10.8994 24.4445 10.1728 24.4445 9.34662H27.09C27.09 10.7587 27.9338 11.4648 29.6213 11.4648C30.2482 11.4648 30.7375 11.3388 31.089 11.0869C31.4406 10.829 31.6164 10.4716 31.6164 10.0146Z" fill="#9EDA9C"/>
</svg>
