<svg width="32" height="47" viewBox="0 0 32 47" fill="none" xmlns="http://www.w3.org/2000/svg">
<path d="M25.3704 26.3466C22.6342 29.0828 22.9763 34.604 22.9763 34.604H9.09996C9.09996 34.604 9.39313 29.0828 6.70581 26.3466C3.72534 23.7082 1.81979 19.8971 1.81979 15.6463C1.81979 7.82863 8.17162 1.47681 15.9893 1.47681C23.8069 1.47681 30.1587 7.82863 30.1587 15.6463C30.1587 19.8971 28.302 23.7082 25.3704 26.3466Z" fill="#3864D8"/>
<path d="M26.1033 26.8356C29.2792 23.9529 31.087 19.8975 31.087 15.6466C31.087 7.3404 24.2954 0.548828 15.9892 0.548828C7.68298 0.548828 0.891418 7.3404 0.891418 15.6466C0.891418 19.9952 2.79697 24.1483 6.02174 26.9822C8.41589 29.3763 8.17159 34.4578 8.17159 34.5067C8.17159 34.751 8.26931 34.9953 8.41589 35.1907C8.61133 35.3861 8.85563 35.4839 9.09993 35.4839H22.9274C23.1717 35.4839 23.416 35.3861 23.6114 35.1907C23.8068 34.9953 23.8557 34.751 23.8557 34.5067C23.8557 34.4578 23.6114 29.3763 26.0056 26.9822C26.0544 26.9333 26.1033 26.8845 26.1033 26.8356ZM24.7352 25.6141C24.6375 25.663 24.5886 25.7607 24.5398 25.8584C22.3899 28.1548 22.0479 31.9171 21.999 33.676H10.0283C9.97941 31.8682 9.58853 27.9594 7.2921 25.663C4.40935 23.1222 2.74811 19.5066 2.74811 15.6955C2.74811 8.36646 8.70905 2.45438 15.9892 2.45438C23.3182 2.45438 29.2303 8.41532 29.2303 15.6955C29.2303 19.4577 27.6179 23.1222 24.7352 25.6141Z" fill="#3864D8"/>
<path d="M15.9893 4.45752C15.5007 4.45752 15.0609 4.8484 15.0609 5.38586C15.0609 5.87447 15.4518 6.31421 15.9893 6.31421C21.4616 6.31421 25.9079 10.7605 25.9079 16.2328C25.9079 16.7214 26.2988 17.1612 26.8362 17.1612C27.3248 17.1612 27.7646 16.7703 27.7646 16.2328C27.7646 9.73442 22.4877 4.45752 15.9893 4.45752Z" fill="white"/>
<path d="M24.2955 38.9531C24.2955 37.6828 23.2694 36.7056 22.0479 36.7056H9.97944C8.70908 36.7056 7.73187 37.7316 7.73187 38.9531C7.73187 40.2235 8.75794 41.2007 9.97944 41.2007H21.999C23.2694 41.2007 24.2955 40.2235 24.2955 38.9531ZM21.999 39.344H9.97944C9.73514 39.344 9.58856 39.1486 9.58856 38.9531C9.58856 38.7088 9.784 38.5623 9.97944 38.5623H21.999C22.2434 38.5623 22.3899 38.7577 22.3899 38.9531C22.4388 39.1974 22.2434 39.344 21.999 39.344Z" fill="#3864D8"/>
<path d="M20.2401 42.1777H11.7873C10.5169 42.1777 9.53973 43.2038 9.53973 44.4253C9.53973 45.6957 10.5658 46.6729 11.7873 46.6729H20.2401C21.5105 46.6729 22.4877 45.6468 22.4877 44.4253C22.4877 43.2038 21.4616 42.1777 20.2401 42.1777ZM20.2401 44.8162H11.7873C11.543 44.8162 11.3964 44.6207 11.3964 44.4253C11.3964 44.181 11.5919 44.0344 11.7873 44.0344H20.2401C20.4844 44.0344 20.631 44.2299 20.631 44.4253C20.631 44.6696 20.4844 44.8162 20.2401 44.8162Z" fill="#3864D8"/>
</svg>
