<svg width="34" height="24" viewBox="0 0 34 24" fill="none" xmlns="http://www.w3.org/2000/svg">
<path d="M29 6H24.5V0H3.50002C1.85002 0 0.500015 1.35 0.500015 3V19.5H3.50002C3.50002 21.99 5.51002 24 8.00002 24C10.49 24 12.5 21.99 12.5 19.5H21.5C21.5 21.99 23.51 24 26 24C28.49 24 30.5 21.99 30.5 19.5H33.5V12L29 6ZM8.00002 21.75C6.75502 21.75 5.75002 20.745 5.75002 19.5C5.75002 18.255 6.75502 17.25 8.00002 17.25C9.24502 17.25 10.25 18.255 10.25 19.5C10.25 20.745 9.24502 21.75 8.00002 21.75ZM28.25 8.25L31.19 12H24.5V8.25H28.25ZM26 21.75C24.755 21.75 23.75 20.745 23.75 19.5C23.75 18.255 24.755 17.25 26 17.25C27.245 17.25 28.25 18.255 28.25 19.5C28.25 20.745 27.245 21.75 26 21.75Z" fill="white"/>
</svg>
