<?xml version="1.0" standalone="no"?>
<!DOCTYPE svg PUBLIC "-//W3C//DTD SVG 20010904//EN"
 "http://www.w3.org/TR/2001/REC-SVG-20010904/DTD/svg10.dtd">
<svg version="1.0" xmlns="http://www.w3.org/2000/svg"
 width="2047.000000pt" height="481.000000pt" viewBox="0 0 2047.000000 481.000000"
 preserveAspectRatio="xMidYMid meet">
<metadata>
Created by potrace 1.15, written by Peter Selinger 2001-2017
</metadata>
<g transform="translate(0.000000,481.000000) scale(0.100000,-0.100000)"
fill="#000000" stroke="none">
<path d="M2894 4580 c-729 -61 -1358 -462 -1728 -1101 l-26 -46 71 -109 c121
-184 186 -262 364 -444 138 -140 175 -185 189 -223 10 -26 33 -70 52 -98 l33
-49 -46 -58 c-128 -157 -119 -150 -186 -157 -179 -21 -315 -114 -334 -229 l-6
-36 252 0 c190 0 259 3 284 14 18 7 61 40 97 73 93 85 195 170 277 232 42 32
77 67 85 85 10 23 13 97 13 281 0 227 -2 253 -19 282 l-19 31 32 40 c77 98
219 205 349 264 218 99 530 116 767 41 136 -43 297 -134 364 -207 14 -14 30
-26 36 -26 6 0 191 183 411 406 l399 407 -70 64 c-327 301 -757 500 -1195 552
-129 15 -333 20 -446 11z"/>
<path d="M6835 3880 c-99 -15 -251 -38 -337 -50 l-158 -23 0 -836 c0 -495 4
-871 10 -921 29 -246 144 -426 326 -512 100 -47 188 -61 349 -55 154 7 252 26
386 78 l82 32 -7 141 c-16 351 -17 358 -40 351 -102 -31 -135 -37 -190 -31
-76 8 -124 33 -148 76 -17 33 -18 79 -18 907 l0 873 -37 -1 c-21 -1 -119 -13
-218 -29z"/>
<path d="M8075 3870 c-137 -21 -287 -44 -333 -50 l-83 -12 3 -912 3 -911 23
-75 c33 -107 78 -185 151 -262 110 -117 246 -168 451 -168 169 0 363 40 480
100 l38 20 -4 72 c-3 40 -9 149 -13 241 -5 92 -11 171 -14 174 -3 3 -27 -3
-54 -13 -33 -13 -74 -19 -128 -19 -89 0 -131 17 -169 68 -21 28 -21 32 -24
908 l-2 879 -38 -1 c-20 -1 -149 -19 -287 -39z"/>
<path d="M11965 3890 c-60 -9 -212 -32 -337 -50 l-228 -33 0 -1149 0 -1148
375 0 375 0 0 146 0 146 40 -60 c117 -174 291 -262 520 -262 172 0 315 44 460
141 197 132 324 322 376 564 21 95 20 298 -1 399 -57 275 -222 494 -459 610
-123 60 -188 76 -337 83 -149 7 -238 -9 -345 -61 -90 -44 -142 -90 -204 -182
l-50 -76 0 476 0 476 -37 -1 c-21 -1 -87 -9 -148 -19z m664 -1199 c65 -34 137
-106 168 -170 23 -47 28 -69 28 -136 0 -71 -4 -88 -33 -147 -104 -212 -355
-263 -527 -107 -131 121 -152 310 -50 451 39 53 109 105 169 124 63 21 191 13
245 -15z"/>
<path d="M14250 3870 c-140 -21 -292 -44 -337 -50 l-83 -12 0 -1149 0 -1149
370 0 370 0 0 153 0 152 32 -55 c101 -177 295 -279 531 -280 393 -1 734 280
834 686 25 105 23 333 -5 446 -41 167 -112 298 -226 416 -158 165 -369 252
-609 252 -182 0 -326 -52 -427 -154 -46 -46 -67 -74 -117 -152 -9 -15 -12 85
-12 459 l-1 477 -32 -1 c-18 -1 -148 -18 -288 -39z m808 -1184 c70 -35 128
-95 161 -165 35 -75 37 -201 4 -273 -29 -63 -106 -144 -168 -176 -43 -23 -62
-27 -140 -27 -78 0 -97 4 -146 28 -70 34 -132 100 -167 175 -37 81 -37 194 -1
272 41 86 126 161 219 191 14 5 61 7 105 5 63 -2 91 -8 133 -30z"/>
<path d="M19935 3870 c-137 -20 -289 -43 -337 -50 l-88 -12 0 -426 0 -425 -41
63 c-121 188 -294 267 -559 257 -227 -9 -404 -90 -566 -258 -348 -363 -335
-961 28 -1305 183 -173 364 -242 607 -232 226 10 381 93 492 262 l39 59 0
-146 0 -147 370 0 370 0 0 1200 0 1200 -32 -1 c-18 -1 -145 -18 -283 -39z
m-626 -1179 c67 -35 146 -114 171 -173 41 -96 34 -223 -17 -307 -31 -50 -98
-113 -148 -138 -72 -38 -179 -43 -257 -13 -74 27 -159 104 -192 173 -87 179 5
402 194 471 65 24 191 17 249 -13z"/>
<path d="M867 3559 c-50 -26 -77 -64 -77 -109 0 -57 148 -300 335 -550 85
-114 89 -123 66 -151 -15 -19 -20 -20 -38 -9 -32 20 -208 264 -309 427 -84
137 -94 148 -123 151 -95 10 -148 -129 -91 -238 31 -60 177 -284 240 -366 55
-73 61 -101 29 -130 -21 -19 -21 -19 -61 26 -22 25 -85 113 -140 195 -55 83
-111 156 -124 163 -80 42 -176 -78 -149 -185 4 -16 41 -80 82 -143 75 -114 87
-146 63 -175 -27 -32 -53 -12 -123 90 -37 55 -71 100 -75 99 -16 -2 -51 -82
-62 -141 -14 -73 -9 -134 17 -187 21 -45 42 -46 114 -6 34 18 69 30 93 30 34
0 45 -6 81 -45 45 -48 79 -65 127 -65 55 0 115 -37 146 -88 22 -38 27 -60 28
-116 l1 -69 45 -12 c61 -15 102 -47 127 -98 38 -78 25 -165 -34 -235 -31 -37
-28 -44 27 -61 41 -14 104 -77 114 -116 7 -27 1 -87 -10 -116 -8 -19 85 -164
184 -289 85 -106 268 -285 376 -366 778 -585 1846 -591 2619 -14 102 76 239
196 243 214 2 11 -799 806 -813 806 -4 0 -33 -24 -65 -53 -199 -179 -525 -268
-819 -223 -213 33 -399 118 -527 241 l-73 70 20 90 c28 129 23 250 -15 325
-33 64 -83 130 -98 130 -6 0 -62 -44 -124 -97 -63 -54 -142 -121 -175 -149
-38 -33 -77 -56 -104 -63 -26 -7 -149 -11 -308 -11 l-264 0 -11 25 c-7 14 -19
28 -27 31 -34 14 -4 136 51 208 71 93 192 161 322 181 35 6 48 15 77 52 20 26
35 57 35 72 -1 51 -64 148 -183 277 -65 71 -155 176 -199 233 -113 143 -258
361 -258 386 0 11 9 31 20 45 22 28 27 92 8 108 -7 5 -50 12 -94 14 -66 4 -89
1 -117 -13z"/>
<path d="M4862 3265 c-513 -90 -827 -489 -773 -984 22 -202 95 -363 229 -503
179 -187 412 -284 712 -295 240 -9 403 22 585 111 184 91 306 210 391 381 68
139 87 222 88 400 1 165 -9 225 -56 348 -78 204 -260 384 -478 473 -142 58
-241 76 -435 80 -127 2 -204 -1 -263 -11z m357 -535 c176 -76 251 -330 157
-535 -85 -186 -323 -244 -470 -114 -77 68 -111 134 -126 244 -38 293 196 509
439 405z"/>
<path d="M9580 3265 c-326 -67 -579 -316 -666 -655 -25 -100 -26 -342 -1 -443
76 -305 296 -549 587 -649 90 -31 102 -32 245 -33 132 0 159 3 223 24 130 42
236 125 314 245 l38 59 0 -151 0 -152 370 0 370 0 0 885 0 885 -370 0 -370 0
0 -191 0 -192 -32 64 c-72 140 -235 267 -390 304 -77 18 -230 18 -318 0z m538
-579 c216 -110 261 -378 92 -546 -72 -73 -128 -95 -235 -95 -78 0 -97 4 -146
28 -67 32 -142 109 -172 175 -16 36 -21 67 -22 132 0 73 4 93 28 142 35 71
119 149 190 177 76 31 192 25 265 -13z"/>
<path d="M16955 3273 c-406 -64 -703 -329 -780 -695 -24 -114 -20 -316 9 -430
79 -313 324 -546 665 -635 170 -44 456 -43 679 3 100 20 322 94 328 108 7 19
-81 471 -92 469 -5 -1 -59 -20 -120 -42 -144 -51 -250 -71 -384 -71 -184 0
-296 53 -354 169 l-24 46 514 67 c282 36 518 70 525 74 8 5 10 43 6 138 -17
401 -213 679 -549 777 -58 17 -106 22 -233 24 -88 2 -173 1 -190 -2z m280
-447 c28 -13 64 -38 79 -57 28 -33 71 -117 64 -124 -4 -4 -504 -115 -518 -115
-24 0 19 149 61 214 67 100 201 135 314 82z"/>
<path d="M420 2245 c-26 -14 -62 -24 -87 -25 -36 0 -45 -4 -56 -27 -36 -72
-26 -156 26 -211 l21 -23 123 123 c68 68 123 128 123 135 0 19 -51 53 -79 53
-14 -1 -46 -12 -71 -25z"/>
<path d="M655 2151 c-16 -10 -85 -74 -152 -142 -136 -139 -150 -166 -118 -233
21 -44 59 -66 117 -66 41 0 46 4 185 143 l143 143 0 50 c0 59 -19 90 -66 110
-45 19 -73 18 -109 -5z"/>
<path d="M870 1889 c-31 -12 -266 -244 -286 -281 -19 -37 -18 -77 6 -115 27
-46 56 -57 129 -54 27 1 271 235 297 283 27 52 12 124 -31 152 -31 20 -85 27
-115 15z"/>
<path d="M945 1502 c-46 -30 -143 -133 -155 -166 -36 -97 74 -191 169 -142 15
8 57 46 94 85 60 64 67 76 67 112 0 44 -21 89 -51 107 -36 23 -92 24 -124 4z"/>
</g>
</svg>
