<svg width="24" height="24" viewBox="0 0 24 24" fill="none" xmlns="http://www.w3.org/2000/svg">
<path d="M11.9998 0C5.3709 0 0 5.37097 0 12C0 18.629 5.3709 24 11.9998 24C18.6288 24 23.9997 18.629 23.9997 12C24.0481 5.37097 18.6288 0 11.9998 0ZM14.9998 12.4355H13.0643C13.0643 15.5806 13.0643 19.4032 13.0643 19.4032H10.1612C10.1612 19.4032 10.1612 15.5806 10.1612 12.4355H8.80633V9.96774H10.1612V8.37097C10.1612 7.20968 10.6934 5.46774 13.0643 5.46774H15.1933V7.83871C15.1933 7.83871 13.8869 7.83871 13.645 7.83871C13.403 7.83871 13.0643 7.98387 13.0643 8.51613V9.96774H15.2901L14.9998 12.4355Z" fill="#FFB10E"/>
</svg>
