<svg width="46" height="45" viewBox="0 0 46 45" fill="none" xmlns="http://www.w3.org/2000/svg">
<mask id="path-1-outside-1" maskUnits="userSpaceOnUse" x="-0.205139" y="0" width="46" height="45" fill="black">
<rect fill="white" x="-0.205139" width="46" height="45"/>
<path d="M35.4722 31.4681L44.4568 22.4973C45.8175 21.1385 45.8175 18.9277 44.4567 17.5689C43.9769 17.0898 43.3908 16.7805 42.7736 16.6393C42.9852 16.185 43.0973 15.6863 43.0973 15.1703C43.0973 14.2395 42.7342 13.3644 42.0751 12.7063C41.5581 12.19 40.9072 11.8566 40.2008 11.7365C40.5985 10.5266 40.3174 9.14093 39.3556 8.18067C38.8268 7.65274 38.169 7.33099 37.4826 7.21339C37.5976 6.86492 37.6583 6.49694 37.6583 6.11935C37.6583 5.18849 37.2952 4.31338 36.6361 3.65527C35.9769 2.99716 35.1004 2.63464 34.1682 2.63464C33.5763 2.63464 33.0071 2.78128 32.5014 3.05661L32.412 2.96074C31.2507 1.7146 29.6068 1 27.9021 1H20.6295C20.1181 1 19.7033 1.41412 19.7033 1.92476V3.13742C19.7033 3.62273 19.7856 4.09518 19.9428 4.53944C19.5239 4.36571 19.0706 4.27446 18.6034 4.27446C17.6711 4.27446 16.7946 4.63698 16.1354 5.29509C15.1732 6.2559 14.8923 7.64257 15.2909 8.85284C14.604 8.97016 13.9453 9.2921 13.416 9.82049C12.7569 10.4787 12.3938 11.3538 12.3938 12.2846C12.3938 12.6614 12.4543 13.0288 12.5688 13.3766C11.8632 13.497 11.213 13.8303 10.6965 14.3461C9.63376 15.4072 9.40106 16.9882 9.99841 18.277C9.36587 18.4213 8.78491 18.7394 8.3147 19.2088C6.95397 20.5674 6.95397 22.7782 8.3147 24.137L10.1624 25.9818L1.06613 35.064C0.704439 35.4252 0.704439 36.0107 1.06613 36.3719C1.24697 36.5524 1.48402 36.6428 1.72098 36.6428C1.95794 36.6428 2.19499 36.5525 2.37583 36.3719L11.5599 27.2019C12.0798 27.4981 12.6699 27.6566 13.2848 27.6566C14.217 27.6566 15.0934 27.294 15.7526 26.6358C16.4688 25.9209 16.8075 24.9698 16.7698 24.0311C16.8168 24.0331 16.8637 24.0345 16.9107 24.0345C17.8042 24.0344 18.6983 23.6947 19.3785 23.0155C20.0376 22.3573 20.4007 21.4822 20.4007 20.5514C20.4007 20.5044 20.3991 20.4576 20.3973 20.4108C20.4436 20.4126 20.49 20.4141 20.5365 20.4141C21.4302 20.4141 22.324 20.0744 23.0043 19.3952C23.6635 18.737 24.0265 17.8618 24.0265 16.9311C24.0265 16.884 24.025 16.8372 24.0231 16.7905C24.0695 16.7923 24.1159 16.7938 24.1624 16.7938C25.0561 16.7938 25.9499 16.4541 26.6302 15.7748C27.9088 14.4982 27.9857 12.4694 26.8617 11.1019L33.0097 4.96326C33.319 4.65427 33.7302 4.48424 34.1677 4.48424C34.6052 4.48424 35.0164 4.65427 35.3258 4.96326C35.6352 5.27216 35.8055 5.68267 35.8055 6.11953C35.8055 6.5563 35.6352 6.96699 35.3257 7.2758L34.4193 8.18086L31.1304 11.4647C30.7687 11.8259 30.7687 12.4114 31.1304 12.7726C31.3112 12.9531 31.5483 13.0435 31.7852 13.0435C32.0222 13.0435 32.2592 12.9532 32.4401 12.7726L35.729 9.48876C36.3674 8.85117 37.4065 8.85108 38.0451 9.48866C38.6837 10.1263 38.6837 11.1637 38.0451 11.8014L37.1386 12.7065L34.7562 15.0853C34.3945 15.4464 34.3945 16.0319 34.7562 16.3932C34.9371 16.5736 35.1741 16.6641 35.4111 16.6641C35.648 16.6641 35.8851 16.5737 36.0659 16.3932L38.4483 14.0144C38.7577 13.7054 39.1689 13.5354 39.6063 13.5354C40.0439 13.5354 40.4551 13.7054 40.7645 14.0144C41.0738 14.3233 41.2441 14.7338 41.2441 15.1707C41.2441 15.6075 41.0738 16.0182 40.7644 16.327L39.5201 17.5693L38.382 18.7057C38.0203 19.0668 38.0203 19.6524 38.382 20.0136C38.5628 20.1941 38.7999 20.2845 39.0369 20.2845C39.2738 20.2845 39.5109 20.1942 39.6917 20.0136L40.8307 18.8764C41.4693 18.2398 42.5077 18.2399 43.146 18.8772C43.7846 19.5148 43.7846 20.5523 43.146 21.1899L34.1614 30.1608C31.9053 32.4135 28.9069 33.7176 25.7185 33.8331C25.4841 33.8417 25.2615 33.9386 25.096 34.1047L16.7962 42.4225C16.4352 42.7843 16.4362 43.3698 16.7986 43.7303C16.9793 43.91 17.2158 44 17.4523 44C17.6898 44 17.9275 43.9093 18.1083 43.7279L24.213 37.61C25.7637 38.6033 27.5873 39.0756 29.4416 38.9531L34.2194 43.7238C34.4003 43.9043 34.6373 43.9947 34.8743 43.9947C35.1114 43.9947 35.3483 43.9044 35.5292 43.7238C35.8908 43.3627 35.8908 42.7772 35.5292 42.4159L30.4492 37.3432C30.2569 37.1512 29.9897 37.0532 29.7186 37.0753L29.425 37.0994C28.0696 37.2103 26.7299 36.9139 25.5602 36.2594L26.1555 35.663C29.6757 35.4462 32.9714 33.9652 35.4722 31.4681ZM14.4429 25.3281C14.1336 25.6371 13.7222 25.8071 13.2849 25.8071C12.8474 25.8071 12.4361 25.6371 12.1269 25.3281L9.62431 22.8295C8.98575 22.1919 8.98575 21.1544 9.62431 20.5168C9.93368 20.2078 10.345 20.0377 10.7824 20.0377C11.2199 20.0377 11.6312 20.2078 11.9405 20.5168L14.443 23.0154C15.0815 23.653 15.0815 24.6904 14.4429 25.3281ZM18.069 21.7076C17.4303 22.3452 16.3911 22.3452 15.7527 21.7076L13.2502 19.2089L12.0058 17.9664C11.3673 17.3288 11.3673 16.2914 12.0058 15.6538C12.3152 15.3448 12.7265 15.1748 13.1639 15.1748C13.6014 15.1748 14.0126 15.3448 14.3219 15.6538L18.0687 19.3949C18.0687 19.3949 18.0687 19.3949 18.0688 19.3949C18.3782 19.7039 18.5485 20.1145 18.5485 20.5512C18.5485 20.988 18.3782 21.3987 18.069 21.7076ZM21.6948 18.0872C21.0562 18.7247 20.017 18.7247 19.3786 18.0872L14.7253 13.4409C14.4159 13.132 14.2456 12.7215 14.2456 12.2847C14.2456 11.8479 14.4159 11.4372 14.7253 11.1284C15.0446 10.8096 15.4641 10.6502 15.8834 10.6502C16.3025 10.6502 16.7215 10.8094 17.0407 11.1276L19.1615 13.2453L21.6946 15.7745H21.6947C22.004 16.0834 22.1743 16.4939 22.1743 16.9308C22.1745 17.3677 22.0042 17.7784 21.6948 18.0872ZM25.3208 14.4667C24.6822 15.1043 23.6432 15.1043 23.0046 14.4667L18.3513 9.82049C18.3508 9.82003 18.3503 9.81957 18.3497 9.81901L17.4448 8.91543C16.8062 8.27775 16.8062 7.24039 17.4448 6.60271C17.764 6.28383 18.1835 6.12443 18.6029 6.12443C19.0223 6.12443 19.4417 6.28383 19.7609 6.60271L25.3206 12.1539C25.6301 12.4628 25.8003 12.8734 25.8003 13.3102C25.8004 13.7471 25.6302 14.1579 25.3208 14.4667ZM25.5643 9.78175L23.0205 7.24177C23.3089 7.30326 23.6055 7.33589 23.9074 7.3358C23.9141 7.3358 23.921 7.3358 23.9278 7.3358L26.4695 7.32387C26.9809 7.32147 27.3937 6.90551 27.3913 6.39477C27.3889 5.88552 26.9747 5.47437 26.4652 5.47437C26.4637 5.47437 26.4622 5.47437 26.4608 5.47437L23.9191 5.48629C23.9152 5.48629 23.9115 5.48629 23.9076 5.48629C23.2814 5.48629 22.6924 5.24359 22.2483 4.80229C21.8014 4.35813 21.5554 3.76696 21.5554 3.13733V2.84942H27.9019C29.0941 2.84942 30.2437 3.34915 31.0559 4.22065L31.0936 4.26105L25.5643 9.78175Z"/>
</mask>
<path d="M35.4722 31.4681L44.4568 22.4973C45.8175 21.1385 45.8175 18.9277 44.4567 17.5689C43.9769 17.0898 43.3908 16.7805 42.7736 16.6393C42.9852 16.185 43.0973 15.6863 43.0973 15.1703C43.0973 14.2395 42.7342 13.3644 42.0751 12.7063C41.5581 12.19 40.9072 11.8566 40.2008 11.7365C40.5985 10.5266 40.3174 9.14093 39.3556 8.18067C38.8268 7.65274 38.169 7.33099 37.4826 7.21339C37.5976 6.86492 37.6583 6.49694 37.6583 6.11935C37.6583 5.18849 37.2952 4.31338 36.6361 3.65527C35.9769 2.99716 35.1004 2.63464 34.1682 2.63464C33.5763 2.63464 33.0071 2.78128 32.5014 3.05661L32.412 2.96074C31.2507 1.7146 29.6068 1 27.9021 1H20.6295C20.1181 1 19.7033 1.41412 19.7033 1.92476V3.13742C19.7033 3.62273 19.7856 4.09518 19.9428 4.53944C19.5239 4.36571 19.0706 4.27446 18.6034 4.27446C17.6711 4.27446 16.7946 4.63698 16.1354 5.29509C15.1732 6.2559 14.8923 7.64257 15.2909 8.85284C14.604 8.97016 13.9453 9.2921 13.416 9.82049C12.7569 10.4787 12.3938 11.3538 12.3938 12.2846C12.3938 12.6614 12.4543 13.0288 12.5688 13.3766C11.8632 13.497 11.213 13.8303 10.6965 14.3461C9.63376 15.4072 9.40106 16.9882 9.99841 18.277C9.36587 18.4213 8.78491 18.7394 8.3147 19.2088C6.95397 20.5674 6.95397 22.7782 8.3147 24.137L10.1624 25.9818L1.06613 35.064C0.704439 35.4252 0.704439 36.0107 1.06613 36.3719C1.24697 36.5524 1.48402 36.6428 1.72098 36.6428C1.95794 36.6428 2.19499 36.5525 2.37583 36.3719L11.5599 27.2019C12.0798 27.4981 12.6699 27.6566 13.2848 27.6566C14.217 27.6566 15.0934 27.294 15.7526 26.6358C16.4688 25.9209 16.8075 24.9698 16.7698 24.0311C16.8168 24.0331 16.8637 24.0345 16.9107 24.0345C17.8042 24.0344 18.6983 23.6947 19.3785 23.0155C20.0376 22.3573 20.4007 21.4822 20.4007 20.5514C20.4007 20.5044 20.3991 20.4576 20.3973 20.4108C20.4436 20.4126 20.49 20.4141 20.5365 20.4141C21.4302 20.4141 22.324 20.0744 23.0043 19.3952C23.6635 18.737 24.0265 17.8618 24.0265 16.9311C24.0265 16.884 24.025 16.8372 24.0231 16.7905C24.0695 16.7923 24.1159 16.7938 24.1624 16.7938C25.0561 16.7938 25.9499 16.4541 26.6302 15.7748C27.9088 14.4982 27.9857 12.4694 26.8617 11.1019L33.0097 4.96326C33.319 4.65427 33.7302 4.48424 34.1677 4.48424C34.6052 4.48424 35.0164 4.65427 35.3258 4.96326C35.6352 5.27216 35.8055 5.68267 35.8055 6.11953C35.8055 6.5563 35.6352 6.96699 35.3257 7.2758L34.4193 8.18086L31.1304 11.4647C30.7687 11.8259 30.7687 12.4114 31.1304 12.7726C31.3112 12.9531 31.5483 13.0435 31.7852 13.0435C32.0222 13.0435 32.2592 12.9532 32.4401 12.7726L35.729 9.48876C36.3674 8.85117 37.4065 8.85108 38.0451 9.48866C38.6837 10.1263 38.6837 11.1637 38.0451 11.8014L37.1386 12.7065L34.7562 15.0853C34.3945 15.4464 34.3945 16.0319 34.7562 16.3932C34.9371 16.5736 35.1741 16.6641 35.4111 16.6641C35.648 16.6641 35.8851 16.5737 36.0659 16.3932L38.4483 14.0144C38.7577 13.7054 39.1689 13.5354 39.6063 13.5354C40.0439 13.5354 40.4551 13.7054 40.7645 14.0144C41.0738 14.3233 41.2441 14.7338 41.2441 15.1707C41.2441 15.6075 41.0738 16.0182 40.7644 16.327L39.5201 17.5693L38.382 18.7057C38.0203 19.0668 38.0203 19.6524 38.382 20.0136C38.5628 20.1941 38.7999 20.2845 39.0369 20.2845C39.2738 20.2845 39.5109 20.1942 39.6917 20.0136L40.8307 18.8764C41.4693 18.2398 42.5077 18.2399 43.146 18.8772C43.7846 19.5148 43.7846 20.5523 43.146 21.1899L34.1614 30.1608C31.9053 32.4135 28.9069 33.7176 25.7185 33.8331C25.4841 33.8417 25.2615 33.9386 25.096 34.1047L16.7962 42.4225C16.4352 42.7843 16.4362 43.3698 16.7986 43.7303C16.9793 43.91 17.2158 44 17.4523 44C17.6898 44 17.9275 43.9093 18.1083 43.7279L24.213 37.61C25.7637 38.6033 27.5873 39.0756 29.4416 38.9531L34.2194 43.7238C34.4003 43.9043 34.6373 43.9947 34.8743 43.9947C35.1114 43.9947 35.3483 43.9044 35.5292 43.7238C35.8908 43.3627 35.8908 42.7772 35.5292 42.4159L30.4492 37.3432C30.2569 37.1512 29.9897 37.0532 29.7186 37.0753L29.425 37.0994C28.0696 37.2103 26.7299 36.9139 25.5602 36.2594L26.1555 35.663C29.6757 35.4462 32.9714 33.9652 35.4722 31.4681ZM14.4429 25.3281C14.1336 25.6371 13.7222 25.8071 13.2849 25.8071C12.8474 25.8071 12.4361 25.6371 12.1269 25.3281L9.62431 22.8295C8.98575 22.1919 8.98575 21.1544 9.62431 20.5168C9.93368 20.2078 10.345 20.0377 10.7824 20.0377C11.2199 20.0377 11.6312 20.2078 11.9405 20.5168L14.443 23.0154C15.0815 23.653 15.0815 24.6904 14.4429 25.3281ZM18.069 21.7076C17.4303 22.3452 16.3911 22.3452 15.7527 21.7076L13.2502 19.2089L12.0058 17.9664C11.3673 17.3288 11.3673 16.2914 12.0058 15.6538C12.3152 15.3448 12.7265 15.1748 13.1639 15.1748C13.6014 15.1748 14.0126 15.3448 14.3219 15.6538L18.0687 19.3949C18.0687 19.3949 18.0687 19.3949 18.0688 19.3949C18.3782 19.7039 18.5485 20.1145 18.5485 20.5512C18.5485 20.988 18.3782 21.3987 18.069 21.7076ZM21.6948 18.0872C21.0562 18.7247 20.017 18.7247 19.3786 18.0872L14.7253 13.4409C14.4159 13.132 14.2456 12.7215 14.2456 12.2847C14.2456 11.8479 14.4159 11.4372 14.7253 11.1284C15.0446 10.8096 15.4641 10.6502 15.8834 10.6502C16.3025 10.6502 16.7215 10.8094 17.0407 11.1276L19.1615 13.2453L21.6946 15.7745H21.6947C22.004 16.0834 22.1743 16.4939 22.1743 16.9308C22.1745 17.3677 22.0042 17.7784 21.6948 18.0872ZM25.3208 14.4667C24.6822 15.1043 23.6432 15.1043 23.0046 14.4667L18.3513 9.82049C18.3508 9.82003 18.3503 9.81957 18.3497 9.81901L17.4448 8.91543C16.8062 8.27775 16.8062 7.24039 17.4448 6.60271C17.764 6.28383 18.1835 6.12443 18.6029 6.12443C19.0223 6.12443 19.4417 6.28383 19.7609 6.60271L25.3206 12.1539C25.6301 12.4628 25.8003 12.8734 25.8003 13.3102C25.8004 13.7471 25.6302 14.1579 25.3208 14.4667ZM25.5643 9.78175L23.0205 7.24177C23.3089 7.30326 23.6055 7.33589 23.9074 7.3358C23.9141 7.3358 23.921 7.3358 23.9278 7.3358L26.4695 7.32387C26.9809 7.32147 27.3937 6.90551 27.3913 6.39477C27.3889 5.88552 26.9747 5.47437 26.4652 5.47437C26.4637 5.47437 26.4622 5.47437 26.4608 5.47437L23.9191 5.48629C23.9152 5.48629 23.9115 5.48629 23.9076 5.48629C23.2814 5.48629 22.6924 5.24359 22.2483 4.80229C21.8014 4.35813 21.5554 3.76696 21.5554 3.13733V2.84942H27.9019C29.0941 2.84942 30.2437 3.34915 31.0559 4.22065L31.0936 4.26105L25.5643 9.78175Z" fill="#9EDA9C"/>
<path d="M35.4722 31.4681L44.4568 22.4973C45.8175 21.1385 45.8175 18.9277 44.4567 17.5689C43.9769 17.0898 43.3908 16.7805 42.7736 16.6393C42.9852 16.185 43.0973 15.6863 43.0973 15.1703C43.0973 14.2395 42.7342 13.3644 42.0751 12.7063C41.5581 12.19 40.9072 11.8566 40.2008 11.7365C40.5985 10.5266 40.3174 9.14093 39.3556 8.18067C38.8268 7.65274 38.169 7.33099 37.4826 7.21339C37.5976 6.86492 37.6583 6.49694 37.6583 6.11935C37.6583 5.18849 37.2952 4.31338 36.6361 3.65527C35.9769 2.99716 35.1004 2.63464 34.1682 2.63464C33.5763 2.63464 33.0071 2.78128 32.5014 3.05661L32.412 2.96074C31.2507 1.7146 29.6068 1 27.9021 1H20.6295C20.1181 1 19.7033 1.41412 19.7033 1.92476V3.13742C19.7033 3.62273 19.7856 4.09518 19.9428 4.53944C19.5239 4.36571 19.0706 4.27446 18.6034 4.27446C17.6711 4.27446 16.7946 4.63698 16.1354 5.29509C15.1732 6.2559 14.8923 7.64257 15.2909 8.85284C14.604 8.97016 13.9453 9.2921 13.416 9.82049C12.7569 10.4787 12.3938 11.3538 12.3938 12.2846C12.3938 12.6614 12.4543 13.0288 12.5688 13.3766C11.8632 13.497 11.213 13.8303 10.6965 14.3461C9.63376 15.4072 9.40106 16.9882 9.99841 18.277C9.36587 18.4213 8.78491 18.7394 8.3147 19.2088C6.95397 20.5674 6.95397 22.7782 8.3147 24.137L10.1624 25.9818L1.06613 35.064C0.704439 35.4252 0.704439 36.0107 1.06613 36.3719C1.24697 36.5524 1.48402 36.6428 1.72098 36.6428C1.95794 36.6428 2.19499 36.5525 2.37583 36.3719L11.5599 27.2019C12.0798 27.4981 12.6699 27.6566 13.2848 27.6566C14.217 27.6566 15.0934 27.294 15.7526 26.6358C16.4688 25.9209 16.8075 24.9698 16.7698 24.0311C16.8168 24.0331 16.8637 24.0345 16.9107 24.0345C17.8042 24.0344 18.6983 23.6947 19.3785 23.0155C20.0376 22.3573 20.4007 21.4822 20.4007 20.5514C20.4007 20.5044 20.3991 20.4576 20.3973 20.4108C20.4436 20.4126 20.49 20.4141 20.5365 20.4141C21.4302 20.4141 22.324 20.0744 23.0043 19.3952C23.6635 18.737 24.0265 17.8618 24.0265 16.9311C24.0265 16.884 24.025 16.8372 24.0231 16.7905C24.0695 16.7923 24.1159 16.7938 24.1624 16.7938C25.0561 16.7938 25.9499 16.4541 26.6302 15.7748C27.9088 14.4982 27.9857 12.4694 26.8617 11.1019L33.0097 4.96326C33.319 4.65427 33.7302 4.48424 34.1677 4.48424C34.6052 4.48424 35.0164 4.65427 35.3258 4.96326C35.6352 5.27216 35.8055 5.68267 35.8055 6.11953C35.8055 6.5563 35.6352 6.96699 35.3257 7.2758L34.4193 8.18086L31.1304 11.4647C30.7687 11.8259 30.7687 12.4114 31.1304 12.7726C31.3112 12.9531 31.5483 13.0435 31.7852 13.0435C32.0222 13.0435 32.2592 12.9532 32.4401 12.7726L35.729 9.48876C36.3674 8.85117 37.4065 8.85108 38.0451 9.48866C38.6837 10.1263 38.6837 11.1637 38.0451 11.8014L37.1386 12.7065L34.7562 15.0853C34.3945 15.4464 34.3945 16.0319 34.7562 16.3932C34.9371 16.5736 35.1741 16.6641 35.4111 16.6641C35.648 16.6641 35.8851 16.5737 36.0659 16.3932L38.4483 14.0144C38.7577 13.7054 39.1689 13.5354 39.6063 13.5354C40.0439 13.5354 40.4551 13.7054 40.7645 14.0144C41.0738 14.3233 41.2441 14.7338 41.2441 15.1707C41.2441 15.6075 41.0738 16.0182 40.7644 16.327L39.5201 17.5693L38.382 18.7057C38.0203 19.0668 38.0203 19.6524 38.382 20.0136C38.5628 20.1941 38.7999 20.2845 39.0369 20.2845C39.2738 20.2845 39.5109 20.1942 39.6917 20.0136L40.8307 18.8764C41.4693 18.2398 42.5077 18.2399 43.146 18.8772C43.7846 19.5148 43.7846 20.5523 43.146 21.1899L34.1614 30.1608C31.9053 32.4135 28.9069 33.7176 25.7185 33.8331C25.4841 33.8417 25.2615 33.9386 25.096 34.1047L16.7962 42.4225C16.4352 42.7843 16.4362 43.3698 16.7986 43.7303C16.9793 43.91 17.2158 44 17.4523 44C17.6898 44 17.9275 43.9093 18.1083 43.7279L24.213 37.61C25.7637 38.6033 27.5873 39.0756 29.4416 38.9531L34.2194 43.7238C34.4003 43.9043 34.6373 43.9947 34.8743 43.9947C35.1114 43.9947 35.3483 43.9044 35.5292 43.7238C35.8908 43.3627 35.8908 42.7772 35.5292 42.4159L30.4492 37.3432C30.2569 37.1512 29.9897 37.0532 29.7186 37.0753L29.425 37.0994C28.0696 37.2103 26.7299 36.9139 25.5602 36.2594L26.1555 35.663C29.6757 35.4462 32.9714 33.9652 35.4722 31.4681ZM14.4429 25.3281C14.1336 25.6371 13.7222 25.8071 13.2849 25.8071C12.8474 25.8071 12.4361 25.6371 12.1269 25.3281L9.62431 22.8295C8.98575 22.1919 8.98575 21.1544 9.62431 20.5168C9.93368 20.2078 10.345 20.0377 10.7824 20.0377C11.2199 20.0377 11.6312 20.2078 11.9405 20.5168L14.443 23.0154C15.0815 23.653 15.0815 24.6904 14.4429 25.3281ZM18.069 21.7076C17.4303 22.3452 16.3911 22.3452 15.7527 21.7076L13.2502 19.2089L12.0058 17.9664C11.3673 17.3288 11.3673 16.2914 12.0058 15.6538C12.3152 15.3448 12.7265 15.1748 13.1639 15.1748C13.6014 15.1748 14.0126 15.3448 14.3219 15.6538L18.0687 19.3949C18.0687 19.3949 18.0687 19.3949 18.0688 19.3949C18.3782 19.7039 18.5485 20.1145 18.5485 20.5512C18.5485 20.988 18.3782 21.3987 18.069 21.7076ZM21.6948 18.0872C21.0562 18.7247 20.017 18.7247 19.3786 18.0872L14.7253 13.4409C14.4159 13.132 14.2456 12.7215 14.2456 12.2847C14.2456 11.8479 14.4159 11.4372 14.7253 11.1284C15.0446 10.8096 15.4641 10.6502 15.8834 10.6502C16.3025 10.6502 16.7215 10.8094 17.0407 11.1276L19.1615 13.2453L21.6946 15.7745H21.6947C22.004 16.0834 22.1743 16.4939 22.1743 16.9308C22.1745 17.3677 22.0042 17.7784 21.6948 18.0872ZM25.3208 14.4667C24.6822 15.1043 23.6432 15.1043 23.0046 14.4667L18.3513 9.82049C18.3508 9.82003 18.3503 9.81957 18.3497 9.81901L17.4448 8.91543C16.8062 8.27775 16.8062 7.24039 17.4448 6.60271C17.764 6.28383 18.1835 6.12443 18.6029 6.12443C19.0223 6.12443 19.4417 6.28383 19.7609 6.60271L25.3206 12.1539C25.6301 12.4628 25.8003 12.8734 25.8003 13.3102C25.8004 13.7471 25.6302 14.1579 25.3208 14.4667ZM25.5643 9.78175L23.0205 7.24177C23.3089 7.30326 23.6055 7.33589 23.9074 7.3358C23.9141 7.3358 23.921 7.3358 23.9278 7.3358L26.4695 7.32387C26.9809 7.32147 27.3937 6.90551 27.3913 6.39477C27.3889 5.88552 26.9747 5.47437 26.4652 5.47437C26.4637 5.47437 26.4622 5.47437 26.4608 5.47437L23.9191 5.48629C23.9152 5.48629 23.9115 5.48629 23.9076 5.48629C23.2814 5.48629 22.6924 5.24359 22.2483 4.80229C21.8014 4.35813 21.5554 3.76696 21.5554 3.13733V2.84942H27.9019C29.0941 2.84942 30.2437 3.34915 31.0559 4.22065L31.0936 4.26105L25.5643 9.78175Z" stroke="#9EDA9C" stroke-width="0.6" mask="url(#path-1-outside-1)"/>
</svg>
