<svg width="22" height="18" viewBox="0 0 22 18" fill="none" xmlns="http://www.w3.org/2000/svg">
<path d="M11 3.78027L3.15379 10.2486C3.15379 10.2578 3.1515 10.2712 3.14691 10.2895C3.14242 10.3077 3.14003 10.3209 3.14003 10.3302V16.8801C3.14003 17.1166 3.22649 17.3216 3.39937 17.4942C3.57219 17.6668 3.77685 17.7537 4.01339 17.7537H9.25317V12.5137H12.7468V17.7539H17.9866C18.2231 17.7539 18.428 17.6672 18.6006 17.4942C18.7735 17.3218 18.8602 17.1167 18.8602 16.8801V10.3302C18.8602 10.2939 18.8553 10.2665 18.8465 10.2486L11 3.78027Z" fill="#E86553"/>
<path d="M21.8482 8.77487L18.8599 6.29133V0.723807C18.8599 0.596528 18.819 0.491857 18.7369 0.409936C18.6555 0.32811 18.5508 0.287198 18.4232 0.287198H15.8033C15.6759 0.287198 15.5712 0.32811 15.4893 0.409936C15.4075 0.491857 15.3666 0.596576 15.3666 0.723807V3.38471L12.0371 0.600878C11.7463 0.364339 11.4006 0.246094 11.0003 0.246094C10.6 0.246094 10.2543 0.364339 9.96321 0.600878L0.151587 8.77487C0.0606329 8.84752 0.0107826 8.94531 0.00151031 9.06814C-0.00771415 9.19088 0.0240696 9.29808 0.0969572 9.38899L0.942979 10.3988C1.01587 10.4806 1.11127 10.5307 1.22956 10.549C1.33877 10.5582 1.44798 10.5262 1.55719 10.4535L11 2.5796L20.4429 10.4534C20.5158 10.5169 20.6111 10.5486 20.7294 10.5486H20.7704C20.8886 10.5306 20.9838 10.4803 21.057 10.3986L21.9031 9.38894C21.9759 9.29784 22.0078 9.19083 21.9983 9.06795C21.989 8.94545 21.9389 8.84766 21.8482 8.77487Z" fill="#E86553"/>
</svg>
