<svg width="24" height="24" viewBox="0 0 24 24" fill="none" xmlns="http://www.w3.org/2000/svg">
<path fill-rule="evenodd" clip-rule="evenodd" d="M12 24C18.6274 24 24 18.6274 24 12C24 5.37258 18.6274 0 12 0C5.37258 0 0 5.37258 0 12C0 18.6274 5.37258 24 12 24ZM6.00037 8.76074H8.68028V17.0005H6.00037V8.76074ZM16.0002 8.8407C15.9832 8.8407 15.9734 8.8407 15.9647 8.83763C15.953 8.83348 15.9432 8.8237 15.9202 8.8007C15.8802 8.8007 15.8402 8.8007 15.8002 8.7607C15.6402 8.7207 15.5202 8.7207 15.3202 8.7207C13.7602 8.7207 12.7603 9.84067 12.4403 10.2807V8.7607H9.76038V17.0004H12.4403V12.5206C12.4403 12.5206 14.4802 9.68067 15.3202 11.7606V17.0004H18.0001V11.4406C18.0001 10.2007 17.1601 9.16069 16.0002 8.8407ZM8.63992 6.31996C8.63992 7.04895 8.04895 7.63992 7.31996 7.63992C6.59097 7.63992 6 7.04895 6 6.31996C6 5.59097 6.59097 5 7.31996 5C8.04895 5 8.63992 5.59097 8.63992 6.31996Z" fill="#FFB10E"/>
</svg>
