<svg width="21" height="14" viewBox="0 0 21 14" fill="none" xmlns="http://www.w3.org/2000/svg">
<path d="M6.6582 0.203125H8.87305V9.17676C8.87305 10.4014 8.48926 11.374 7.72168 12.0947C6.95996 12.8154 5.95215 13.1758 4.69824 13.1758C3.3623 13.1758 2.33105 12.8389 1.60449 12.165C0.87793 11.4912 0.514648 10.5537 0.514648 9.35254H2.72949C2.72949 10.0322 2.89648 10.5449 3.23047 10.8906C3.57031 11.2305 4.05957 11.4004 4.69824 11.4004C5.2959 11.4004 5.77051 11.2041 6.12207 10.8115C6.47949 10.4131 6.6582 9.86523 6.6582 9.16797V0.203125ZM11.4219 13V0.203125H15.2012C16.332 0.203125 17.334 0.455078 18.207 0.958984C19.0859 1.46289 19.7656 2.17773 20.2461 3.10352C20.7266 4.0293 20.9668 5.08984 20.9668 6.28516V6.92676C20.9668 8.13965 20.7236 9.20605 20.2373 10.126C19.7568 11.0459 19.0684 11.7549 18.1719 12.2529C17.2812 12.751 16.2588 13 15.1045 13H11.4219ZM13.6455 1.99609V11.2246H15.0957C16.2617 11.2246 17.1553 10.8613 17.7764 10.1348C18.4033 9.40234 18.7227 8.35352 18.7344 6.98828V6.27637C18.7344 4.8877 18.4326 3.82715 17.8291 3.09473C17.2256 2.3623 16.3496 1.99609 15.2012 1.99609H13.6455Z" fill="#5075D6"/>
</svg>
