<?xml version="1.0" standalone="no"?>
<!DOCTYPE svg PUBLIC "-//W3C//DTD SVG 20010904//EN"
 "http://www.w3.org/TR/2001/REC-SVG-20010904/DTD/svg10.dtd">
<svg version="1.0" xmlns="http://www.w3.org/2000/svg"
 width="625.000000pt" height="625.000000pt" viewBox="0 0 625.000000 625.000000"
 preserveAspectRatio="xMidYMid meet">
<metadata>
Created by potrace 1.15, written by Peter Selinger 2001-2017
</metadata>
<g transform="translate(0.000000,625.000000) scale(0.100000,-0.100000)"
fill="#000000" stroke="none">
<path d="M3617 5835 c-221 -27 -442 -81 -649 -159 -563 -212 -1059 -627 -1370
-1148 l-70 -117 23 -38 c147 -243 298 -434 530 -668 188 -191 209 -215 228
-268 11 -32 38 -85 60 -117 23 -33 41 -64 41 -70 0 -10 -191 -243 -208 -254
-6 -3 -45 -11 -88 -17 -44 -5 -100 -16 -125 -24 -150 -43 -267 -155 -286 -272
l-6 -35 331 4 331 4 34 25 c19 13 95 77 168 142 74 65 186 159 250 209 64 49
123 102 130 116 17 33 26 626 11 645 -6 7 -20 29 -31 51 -27 47 -25 51 87 169
100 105 212 187 336 247 202 98 357 133 591 133 342 1 629 -100 861 -303 l58
-51 503 503 c277 277 503 508 503 515 0 7 -43 51 -96 98 -436 388 -936 613
-1514 680 -153 18 -483 18 -633 0z"/>
<path d="M1174 4625 c-64 -42 -88 -89 -89 -170 0 -51 6 -70 39 -130 105 -189
289 -463 441 -658 50 -65 56 -94 24 -123 -18 -17 -23 -17 -46 -4 -49 28 -291
365 -433 602 -28 48 -63 97 -77 108 -79 62 -182 -28 -183 -159 0 -42 8 -67 37
-124 44 -83 203 -326 297 -455 71 -96 82 -135 48 -165 -26 -24 -44 -21 -74 11
-33 34 -152 204 -246 348 -78 120 -105 142 -161 129 -59 -13 -108 -73 -126
-153 -13 -64 4 -106 106 -263 54 -83 99 -161 99 -171 0 -47 -45 -87 -78 -69
-10 5 -56 67 -102 136 -83 126 -84 127 -102 106 -42 -53 -62 -131 -63 -246 0
-178 40 -229 138 -172 23 14 64 32 92 41 45 16 52 16 91 1 24 -9 54 -32 73
-55 39 -49 71 -66 136 -75 93 -12 107 -17 147 -53 65 -58 83 -103 83 -204 l0
-86 38 -6 c87 -14 172 -86 195 -165 28 -93 9 -184 -57 -265 -17 -21 -31 -42
-31 -46 0 -3 24 -14 54 -23 68 -22 128 -78 149 -140 15 -46 15 -55 -5 -133 -9
-40 -8 -44 42 -125 385 -616 1032 -1066 1746 -1214 350 -72 749 -74 1107 -5
473 91 962 342 1311 671 l88 84 -510 503 c-280 276 -513 502 -517 502 -4 0
-33 -23 -64 -52 -352 -323 -942 -401 -1419 -187 -98 44 -248 148 -318 221
l-62 63 25 115 c18 90 23 138 21 221 -3 103 -5 110 -46 190 -23 46 -57 102
-76 124 l-34 39 -38 -27 c-39 -27 -168 -137 -322 -274 -113 -100 -111 -100
-527 -107 l-340 -5 -30 23 c-29 23 -30 27 -30 103 0 68 4 87 33 144 40 82 145
185 233 230 62 31 190 69 238 70 19 0 36 14 64 50 65 85 66 96 16 197 -35 72
-61 106 -147 197 -199 208 -414 481 -564 717 -37 59 -68 116 -68 128 0 11 16
52 35 90 19 38 35 80 35 93 0 54 -74 86 -195 86 -40 0 -60 -7 -101 -34z"/>
<path d="M610 2915 c-58 -27 -83 -34 -110 -30 -33 6 -37 3 -58 -34 -34 -60
-34 -162 0 -216 52 -82 42 -86 214 86 85 84 154 158 154 162 0 5 -13 22 -29
38 -39 39 -77 38 -171 -6z"/>
<path d="M925 2804 c-38 -20 -321 -299 -341 -336 -8 -15 -14 -49 -14 -75 0
-54 22 -95 66 -124 33 -21 103 -25 137 -8 35 19 189 163 278 260 78 85 83 93
86 142 3 40 -1 60 -16 85 -42 66 -128 91 -196 56z"/>
<path d="M1175 2469 c-11 -6 -93 -84 -183 -173 -177 -176 -191 -197 -173 -276
16 -73 67 -110 152 -110 l53 0 173 172 c184 183 202 210 189 281 -8 42 -38 82
-76 102 -34 17 -106 19 -135 4z"/>
<path d="M1295 1996 c-40 -18 -191 -173 -204 -209 -24 -64 -7 -124 49 -171 25
-20 42 -26 81 -26 28 0 62 6 77 14 32 17 175 161 191 193 28 55 -3 159 -57
187 -43 22 -103 27 -137 12z"/>
</g>
</svg>
