<svg width="28" height="25" viewBox="0 0 28 25" fill="none" xmlns="http://www.w3.org/2000/svg">
<path fill-rule="evenodd" clip-rule="evenodd" d="M8.75 19.0827L13 14.9177C12.4475 14.861 12.0367 14.8327 11.5833 14.8327C7.80083 14.8327 0.25 16.731 0.25 20.4993V23.3327H13L8.75 19.0827ZM11.5833 11.9993C14.7142 11.9993 17.25 9.46351 17.25 6.33268C17.25 3.20185 14.7142 0.666016 11.5833 0.666016C8.4525 0.666016 5.91667 3.20185 5.91667 6.33268C5.91667 9.46351 8.4525 11.9993 11.5833 11.9993Z" fill="#999FAE"/>
<path fill-rule="evenodd" clip-rule="evenodd" d="M17.9158 24.0404L13 19.082L14.9833 17.0845L17.9158 20.0312L25.1833 12.707L27.1667 14.7045L17.9158 24.0404Z" fill="#999FAE"/>
</svg>
