<svg width="24" height="24" viewBox="0 0 24 24" fill="none" xmlns="http://www.w3.org/2000/svg">
<path d="M20.764 7.22727C21.1685 6.54546 21.4382 5.59091 21.4382 4.77273C21.4382 2.18182 19.4157 0 16.7191 0C14.0225 0 12 2.04545 12 4.77273C12 7.5 14.0225 9.54545 16.7191 9.54545C17.6629 9.54545 18.4719 9.27273 19.1461 8.86364L22.5169 12L24 10.5L20.764 7.22727ZM16.8539 7.36364C15.3708 7.36364 14.2921 6.13636 14.2921 4.77273C14.2921 3.40909 15.5056 2.18182 16.8539 2.18182C18.2022 2.18182 19.4157 3.40909 19.4157 4.77273C19.4157 6.13636 18.3371 7.36364 16.8539 7.36364Z" fill="#5075D6"/>
<path d="M8.98378 16.1207C11.4228 16.1207 13.3999 14.079 13.3999 11.5604C13.3999 9.04175 11.4228 7 8.98378 7C6.54481 7 4.56763 9.04175 4.56763 11.5604C4.56763 14.079 6.54481 16.1207 8.98378 16.1207Z" fill="#5075D6"/>
<path d="M8.98368 17.6409C6.03958 17.6409 0.151367 18.971 0.151367 21.8212V23.9114H18V21.8212C17.816 18.971 11.9278 17.6409 8.98368 17.6409Z" fill="#5075D6"/>
</svg>
