<svg width="30" height="30" viewBox="0 0 30 30" fill="none" xmlns="http://www.w3.org/2000/svg">
<path d="M23.764 11.2273C24.1685 10.5455 24.4382 9.59091 24.4382 8.77273C24.4382 6.18182 22.4157 4 19.7191 4C17.0225 4 15 6.04545 15 8.77273C15 11.5 17.0225 13.5455 19.7191 13.5455C20.6629 13.5455 21.4719 13.2727 22.1461 12.8636L25.5169 16L27 14.5L23.764 11.2273ZM19.8539 11.3636C18.3708 11.3636 17.2921 10.1364 17.2921 8.77273C17.2921 7.40909 18.5056 6.18182 19.8539 6.18182C21.2022 6.18182 22.4157 7.40909 22.4157 8.77273C22.4157 10.1364 21.3371 11.3636 19.8539 11.3636Z" fill="#F3F4F6"/>
<path d="M11.984 20.1207C14.423 20.1207 16.4002 18.079 16.4002 15.5604C16.4002 13.0417 14.423 11 11.984 11C9.54505 11 7.56787 13.0417 7.56787 15.5604C7.56787 18.079 9.54505 20.1207 11.984 20.1207Z" fill="#F3F4F6"/>
<path d="M11.9837 21.6409C9.03958 21.6409 3.15137 22.971 3.15137 25.8212V27.9114H21V25.8212C20.816 22.971 14.9278 21.6409 11.9837 21.6409Z" fill="#F3F4F6"/>
</svg>
