<svg width="42" height="42" viewBox="0 0 42 42" fill="none" xmlns="http://www.w3.org/2000/svg">
<path d="M14.6859 36.8946C15.2558 36.2328 16.0858 35.8522 16.9591 35.8522H23.7197C24.3902 35.8522 25.0188 35.5258 25.4045 34.9773C26.5616 33.3319 29.1491 34.1506 29.1491 36.1621V38.3278C29.1491 39.8438 30.378 41.0727 31.894 41.0727H38.7636C40.4205 41.0727 41.7636 39.7296 41.7636 38.0727V3.92724C41.7636 2.27039 40.4205 0.927246 38.7636 0.927246H32.1491C30.4922 0.927246 29.1491 2.27039 29.1491 3.92725V8.7034C29.1491 9.70567 28.6292 10.6211 27.8823 11.2895C27.5813 11.5589 27.2949 11.8442 27.0244 12.144C26.3559 12.8849 25.4438 13.4005 24.4459 13.4005H13.7627C12.7876 13.4005 11.8734 13.8744 11.3113 14.6712L0.690104 29.727C-0.249525 31.0589 0.0463127 32.8974 1.35634 33.8674L8.84812 39.4143C10.1109 40.3493 11.8812 40.1515 12.9065 38.9609L14.6859 36.8946ZM31.6554 5.75481C31.6554 4.46627 32.7 3.4217 33.9885 3.4217H36.2573C37.9142 3.4217 39.2573 4.76485 39.2573 6.4217V35.4545C39.2573 37.1114 37.9142 38.4545 36.2573 38.4545H34.6554C32.9986 38.4545 31.6554 37.1114 31.6554 35.4545V31.794C31.6554 31.0236 32.4164 30.4818 33.1714 30.6354C33.7283 30.7486 34.1614 31.2209 34.1614 31.7893V32.1043C34.1614 32.7964 34.7225 33.3575 35.4146 33.3575C36.1067 33.3575 36.6678 32.7964 36.6678 32.1043V7.16965C36.6678 6.47755 36.1067 5.91648 35.4146 5.91648C34.7225 5.91648 34.1614 6.47755 34.1614 7.16965V7.4818C34.1614 8.05045 33.7223 8.52357 33.1649 8.63633C32.4104 8.78899 31.6554 8.24591 31.6554 7.47605V5.75481ZM30.9209 12.1415C32.4891 11.2065 34.1614 12.629 34.1614 14.4549V26.5123C34.1614 27.443 33.3281 28.1651 32.452 27.8508C31.7991 27.6165 31.1765 27.3063 30.5977 26.9279C30.0824 26.591 30.3544 25.8738 30.97 25.8738C31.3485 25.8738 31.6554 25.5669 31.6554 25.1883V20.6742C31.6554 19.4125 30.6326 18.3897 29.3709 18.3897C27.9793 18.3897 26.8961 17.1299 27.4999 15.876C28.2479 14.3225 29.4442 13.022 30.9209 12.1415ZM4.80874 33.3143C3.49875 32.3443 3.2029 30.5059 4.14247 29.1739L12.6137 17.165C13.1758 16.3682 14.0901 15.8943 15.0652 15.8943H23.2084C23.9755 15.8943 24.5159 16.6477 24.3626 17.3993C24.2497 17.9534 23.7792 18.3897 23.2137 18.3897H19.1185C18.4296 18.3897 17.8712 18.9481 17.8712 19.637C17.8712 20.3258 18.4296 20.8842 19.1185 20.8842H27.9017C28.5906 20.8842 29.1491 21.4427 29.1491 22.1316C29.1491 22.8205 28.5906 23.379 27.9017 23.379H23.753C22.8111 23.379 21.9238 23.8214 21.357 24.5737L19.3981 27.1735C18.8313 27.9258 17.9441 28.3682 17.0021 28.3682H12.8531C12.1642 28.3682 11.6057 28.9267 11.6057 29.6156C11.6057 30.3045 12.1642 30.863 12.8531 30.863H18.255C19.1969 30.863 20.0842 30.4206 20.651 29.6684L22.7751 26.8495C23.2381 26.2351 23.9627 25.8738 24.732 25.8738H25.1517C25.7048 25.8738 26.2174 26.1579 26.5619 26.5907C27.0699 27.2288 27.1628 28.1269 26.6937 28.7941L24.3807 32.0832C23.8189 32.882 22.9034 33.3575 21.9267 33.3575H15.8065C14.9331 33.3575 14.1031 33.7381 13.5332 34.3999L12.5258 35.5697C11.5005 36.7604 9.73016 36.9582 8.46734 36.0232L4.80874 33.3143Z" fill="#9EDA9C"/>
</svg>
