<svg width="89" height="26" viewBox="0 0 89 26" fill="none" xmlns="http://www.w3.org/2000/svg">
<rect y="0.285767" width="88.3637" height="25.7143" rx="12.8571" fill="#E5FCE5"/>
<path d="M18.8182 17.3777L23.8745 20.375L22.5327 14.7259L27 10.925L21.1173 10.4348L18.8182 5.10712L16.5191 10.4348L10.6364 10.925L15.1036 14.7259L13.7618 20.375L18.8182 17.3777Z" fill="#9EDA9C"/>
<path d="M44.1819 17.3777L49.2382 20.375L47.8964 14.7259L52.3637 10.925L46.4809 10.4348L44.1819 5.10712L41.8828 10.4348L36 10.925L40.4673 14.7259L39.1255 20.375L44.1819 17.3777Z" fill="#9EDA9C"/>
<path d="M69.5455 17.3777L74.6018 20.375L73.26 14.7259L77.7273 10.925L71.8446 10.4348L69.5455 5.10712L67.2464 10.4348L61.3637 10.925L65.8309 14.7259L64.4891 20.375L69.5455 17.3777Z" fill="#9EDA9C"/>
</svg>
