<svg width="36" height="36" viewBox="0 0 36 36" fill="none" xmlns="http://www.w3.org/2000/svg">
<path d="M28.35 17.9999V29.6999H7.34998V8.69993H15.6C15.75 7.64993 15.9 6.59993 16.35 5.69993H7.34998C5.69998 5.69993 4.34998 7.04993 4.34998 8.69993V29.6999C4.34998 31.3499 5.69998 32.6999 7.34998 32.6999H28.35C30 32.6999 31.35 31.3499 31.35 29.6999V20.9999L28.35 17.9999ZM28.05 11.2499C28.5 10.4999 28.8 9.44993 28.8 8.54993C28.8 5.69993 26.55 3.29993 23.55 3.29993C20.55 3.29993 18.3 5.54993 18.3 8.54993C18.3 11.5499 20.55 13.7999 23.55 13.7999C24.6 13.7999 25.5 13.4999 26.25 13.0499L30 16.4999L31.65 14.8499L28.05 11.2499ZM23.7 11.3999C22.05 11.3999 20.85 10.0499 20.85 8.54993C20.85 7.04993 22.2 5.69993 23.7 5.69993C25.2 5.69993 26.55 7.04993 26.55 8.54993C26.55 10.0499 25.35 11.3999 23.7 11.3999Z" fill="#999FAE"/>
<path d="M18 20.8499C19.9882 20.8499 21.6 19.2381 21.6 17.2499C21.6 15.2617 19.9882 13.6499 18 13.6499C16.0118 13.6499 14.4 15.2617 14.4 17.2499C14.4 19.2381 16.0118 20.8499 18 20.8499Z" fill="#999FAE"/>
<path d="M18 22.0499C15.6 22.0499 10.8 23.0999 10.8 25.3499V26.9999H25.35V25.3499C25.2 23.0999 20.4 22.0499 18 22.0499Z" fill="#999FAE"/>
</svg>
