<svg width="22" height="21" viewBox="0 0 22 21" fill="none" xmlns="http://www.w3.org/2000/svg">
<path d="M13.9205 12.2233H13.2203L12.9721 11.9882C13.8407 10.9958 14.3637 9.70744 14.3637 8.30588C14.3637 5.18066 11.7843 2.6474 8.6023 2.6474C5.42025 2.6474 2.84093 5.18066 2.84093 8.30588C2.84093 11.4311 5.42025 13.9644 8.6023 13.9644C10.0293 13.9644 11.3412 13.4507 12.3516 12.5976L12.5909 12.8414V13.5291L17.0228 17.8731L18.3434 16.576L13.9205 12.2233ZM8.6023 12.2233C6.39525 12.2233 4.61366 10.4735 4.61366 8.30588C4.61366 6.13825 6.39525 4.38847 8.6023 4.38847C10.8093 4.38847 12.5909 6.13825 12.5909 8.30588C12.5909 10.4735 10.8093 12.2233 8.6023 12.2233Z" fill="white"/>
</svg>
