<svg width="36" height="36" viewBox="0 0 36 36" fill="none" xmlns="http://www.w3.org/2000/svg">
<path d="M28.35 17.9999V29.6999H7.34998V8.69993H15.6C15.75 7.64993 15.9 6.59993 16.35 5.69993H7.34998C5.69998 5.69993 4.34998 7.04993 4.34998 8.69993V29.6999C4.34998 31.3499 5.69998 32.6999 7.34998 32.6999H28.35C30 32.6999 31.35 31.3499 31.35 29.6999V20.9999L28.35 17.9999ZM28.05 11.2499C28.5 10.4999 28.8 9.44993 28.8 8.54993C28.8 5.69993 26.55 3.29993 23.55 3.29993C20.55 3.29993 18.3 5.54993 18.3 8.54993C18.3 11.5499 20.55 13.7999 23.55 13.7999C24.6 13.7999 25.5 13.4999 26.25 13.0499L30 16.4999L31.65 14.8499L28.05 11.2499ZM23.7 11.3999C22.05 11.3999 20.85 10.0499 20.85 8.54993C20.85 7.04993 22.2 5.69993 23.7 5.69993C25.2 5.69993 26.55 7.04993 26.55 8.54993C26.55 10.0499 25.35 11.3999 23.7 11.3999Z" fill="#999FAE"/>
<path d="M16.65 23.55V22.8H11.4V25.5C11.4 26.25 12 27 12.9 27H23.25C24 27 24.75 26.4 24.75 25.5V22.8H19.5V23.55H16.65ZM24 16.65H21V15.6L19.5 14.1H16.5L15 15.6V16.65H12C11.25 16.65 10.5 17.25 10.5 18.15V19.95C10.5 20.7 11.1 21.45 12 21.45H16.5V19.95H19.5V21.45H24C24.75 21.45 25.5 20.85 25.5 19.95V18.15C25.5 17.25 24.9 16.65 24 16.65ZM19.5 16.65H16.5V15.15H19.5V16.65Z" fill="#999FAE"/>
</svg>
