<svg width="58" height="14" viewBox="0 0 58 14" fill="none" xmlns="http://www.w3.org/2000/svg">
<path d="M7.77832 9.64258C7.77832 9.14453 7.60254 8.76367 7.25098 8.5C6.89941 8.23047 6.2666 7.94922 5.35254 7.65625C4.43848 7.35742 3.71484 7.06445 3.18164 6.77734C1.72852 5.99219 1.00195 4.93457 1.00195 3.60449C1.00195 2.91309 1.19531 2.29785 1.58203 1.75879C1.97461 1.21387 2.53418 0.789062 3.26074 0.484375C3.99316 0.179688 4.81348 0.0273438 5.72168 0.0273438C6.63574 0.0273438 7.4502 0.194336 8.16504 0.52832C8.87988 0.856445 9.43359 1.32227 9.82617 1.92578C10.2246 2.5293 10.4238 3.21484 10.4238 3.98242H7.78711C7.78711 3.39648 7.60254 2.94238 7.2334 2.62012C6.86426 2.29199 6.3457 2.12793 5.67773 2.12793C5.0332 2.12793 4.53223 2.26562 4.1748 2.54102C3.81738 2.81055 3.63867 3.16797 3.63867 3.61328C3.63867 4.0293 3.84668 4.37793 4.2627 4.65918C4.68457 4.94043 5.30273 5.2041 6.11719 5.4502C7.61719 5.90137 8.70996 6.46094 9.39551 7.12891C10.0811 7.79688 10.4238 8.62891 10.4238 9.625C10.4238 10.7324 10.0049 11.6025 9.16699 12.2354C8.3291 12.8623 7.20117 13.1758 5.7832 13.1758C4.79883 13.1758 3.90234 12.9971 3.09375 12.6396C2.28516 12.2764 1.66699 11.7812 1.23926 11.1543C0.817383 10.5273 0.606445 9.80078 0.606445 8.97461H3.25195C3.25195 10.3867 4.0957 11.0928 5.7832 11.0928C6.41016 11.0928 6.89941 10.9668 7.25098 10.7148C7.60254 10.457 7.77832 10.0996 7.77832 9.64258ZM22.6318 13H19.9951V7.51562H14.8535V13H12.2168V0.203125H14.8535V5.38867H19.9951V0.203125H22.6318V13ZM32.3262 10.3633H27.7031L26.8242 13H24.0205L28.7842 0.203125H31.2275L36.0176 13H33.2139L32.3262 10.3633ZM28.415 8.22754H31.6143L30.0059 3.4375L28.415 8.22754ZM41.9502 8.31543H39.8496V13H37.2129V0.203125H41.9678C43.4795 0.203125 44.6455 0.540039 45.4658 1.21387C46.2861 1.8877 46.6963 2.83984 46.6963 4.07031C46.6963 4.94336 46.5059 5.67285 46.125 6.25879C45.75 6.83887 45.1787 7.30176 44.4111 7.64746L47.1797 12.877V13H44.3496L41.9502 8.31543ZM39.8496 6.17969H41.9766C42.6387 6.17969 43.1514 6.0127 43.5146 5.67871C43.8779 5.33887 44.0596 4.87305 44.0596 4.28125C44.0596 3.67773 43.8867 3.20312 43.541 2.85742C43.2012 2.51172 42.6768 2.33887 41.9678 2.33887H39.8496V6.17969ZM56.4082 7.4541H51.3457V10.8818H57.2871V13H48.709V0.203125H57.2695V2.33887H51.3457V5.38867H56.4082V7.4541Z" fill="#E86553"/>
</svg>
