<svg width="39" height="32" viewBox="0 0 39 32" fill="none" xmlns="http://www.w3.org/2000/svg">
<path d="M23.9491 5.01334C17.1887 5.01334 11.7142 10.5088 11.7142 17.28C11.7142 24.0512 17.1887 29.5467 23.9491 29.5467C30.7217 29.5467 36.2084 24.0512 36.2084 17.28C36.2084 10.5088 30.7217 5.01334 23.9491 5.01334ZM23.9613 27.0933C18.5481 27.0933 14.1637 22.7019 14.1637 17.28C14.1637 11.8581 18.5481 7.46667 23.9613 7.46667C29.3746 7.46667 33.759 11.8581 33.759 17.28C33.759 22.7019 29.3746 27.0933 23.9613 27.0933ZM28.2478 16.0533C29.2643 16.0533 30.0849 15.2315 30.0849 14.2133C30.0849 13.1952 29.2643 12.3733 28.2478 12.3733C27.2313 12.3733 26.4108 13.1952 26.4108 14.2133C26.4108 15.2315 27.2313 16.0533 28.2478 16.0533ZM19.6749 16.0533C20.6914 16.0533 21.5119 15.2315 21.5119 14.2133C21.5119 13.1952 20.6914 12.3733 19.6749 12.3733C18.6583 12.3733 17.8378 13.1952 17.8378 14.2133C17.8378 15.2315 18.6583 16.0533 19.6749 16.0533ZM23.9613 24.0267C26.8149 24.0267 29.2398 22.2357 30.2196 19.7333H17.7031C18.6828 22.2357 21.1078 24.0267 23.9613 24.0267Z" fill="#9EDA9C"/>
<path d="M12.9922 4.6H8.39954V0H5.33776V4.6H0.745102V7.66666H5.33776V12.2667H8.39954V7.66666H12.9922V4.6Z" fill="#9EDA9C"/>
</svg>
