<svg width="25" height="24" viewBox="0 0 25 24" fill="none" xmlns="http://www.w3.org/2000/svg">
<path d="M12.5661 14.9184V5.86133C12.3099 5.88508 12.0567 5.92515 11.799 5.93703H4.4208C4.01205 5.93703 3.68032 6.26951 3.68032 6.67917V7.42131H1.45887C1.05012 7.42131 0.718384 7.75379 0.718384 8.16345V12.6163C0.718384 13.026 1.05012 13.3584 1.45887 13.3584H3.68032V14.1006C3.68032 14.5102 4.01205 14.8427 4.4208 14.8427H4.86953L7.84627 22.7955C8.02843 23.272 8.4357 23.6178 8.93627 23.7187C9.03549 23.7395 9.13472 23.7499 9.23246 23.7499C9.62788 23.7499 10.004 23.5926 10.2736 23.3105L12.0522 21.5428C12.5069 21.0871 12.615 20.3761 12.3247 19.8255L9.83965 14.8427H11.8064C12.0611 14.8546 12.3129 14.8947 12.5661 14.9184Z" fill="white"/>
<path d="M24.2924 0.359196C24.2776 0.333963 24.2643 0.313184 24.2451 0.289435C24.1636 0.185535 24.0614 0.100931 23.9355 0.0519499C23.9311 0.0504656 23.9281 0.0445285 23.9237 0.0430442C23.9089 0.0385913 23.8955 0.0460127 23.8807 0.0415599C23.8141 0.0222642 23.7474 0 23.6734 0C23.623 0 23.5786 0.0192957 23.5297 0.0296856C23.5016 0.0356228 23.475 0.0371071 23.4468 0.0460127C23.3195 0.0875726 23.2099 0.158818 23.1225 0.256781C23.1166 0.262718 23.1077 0.264202 23.1017 0.270139C20.7929 3.07989 17.5733 4.95899 14.0471 5.64769V15.1337C17.5733 15.8224 20.7929 17.7001 23.1017 20.5098C23.1077 20.5172 23.118 20.5202 23.1254 20.5291C23.1773 20.587 23.241 20.633 23.3091 20.6716C23.3313 20.685 23.3491 20.7043 23.3713 20.7146C23.4646 20.7547 23.5653 20.7799 23.6734 20.7799C23.7578 20.7799 23.8408 20.7651 23.9237 20.7369C23.9281 20.7354 23.9311 20.7295 23.9355 20.728C24.0614 20.679 24.1636 20.5959 24.2451 20.4905C24.2628 20.4668 24.2762 20.446 24.2924 20.4208C24.3635 20.3065 24.4139 20.1803 24.4139 20.0378V0.742141C24.4139 0.59965 24.3635 0.473486 24.2924 0.359196Z" fill="white"/>
</svg>
