<svg width="24" height="24" viewBox="0 0 24 24" fill="none" xmlns="http://www.w3.org/2000/svg">
<path d="M11.9998 0C5.3709 0 0 5.37097 0 12C0 18.629 5.3709 24 11.9998 24C18.6288 24 23.9997 18.629 23.9997 12C24.0481 5.37097 18.6288 0 11.9998 0ZM17.3707 9.24194C17.3707 9.33871 17.3707 9.48387 17.3707 9.58065C17.3707 13.2581 14.6127 17.4677 9.48374 17.4677C7.93538 17.4677 6.48378 17.0323 5.22574 16.2097C5.41928 16.2581 5.66121 16.2581 5.90315 16.2581C7.20958 16.2581 8.37086 15.8226 9.33858 15.0968C8.12892 15.0968 7.11281 14.2742 6.7741 13.1613C6.91926 13.2097 7.11281 13.2097 7.30635 13.2097C7.54829 13.2097 7.79022 13.1613 8.03215 13.1129C6.7741 12.871 5.80637 11.7581 5.80637 10.4032C5.80637 10.4032 5.80637 10.4032 5.80637 10.3548C6.19347 10.5484 6.62894 10.6935 7.06442 10.6935C6.33863 10.2097 5.85476 9.33871 5.85476 8.37097C5.85476 7.8871 5.99992 7.40323 6.24185 6.96774C7.59667 8.66129 9.6289 9.72581 11.9515 9.87097C11.9031 9.67742 11.9031 9.43548 11.9031 9.24194C11.9031 7.69355 13.1611 6.48387 14.6611 6.48387C15.4353 6.48387 16.1611 6.82258 16.6933 7.35484C17.3223 7.20968 17.903 7.01613 18.4352 6.67742C18.2417 7.30645 17.8062 7.8871 17.2256 8.22581C17.8062 8.17742 18.3385 8.03226 18.8223 7.79032C18.3869 8.37097 17.903 8.85484 17.3707 9.24194Z" fill="#FFB10E"/>
</svg>
