<svg width="25" height="25" viewBox="0 0 25 25" fill="none" xmlns="http://www.w3.org/2000/svg">
<path d="M21.764 7.22727C22.1685 6.54546 22.4382 5.59091 22.4382 4.77273C22.4382 2.18182 20.4157 0 17.7191 0C15.0225 0 13 2.04545 13 4.77273C13 7.5 15.0225 9.54545 17.7191 9.54545C18.6629 9.54545 19.4719 9.27273 20.1461 8.86364L23.5169 12L25 10.5L21.764 7.22727ZM17.8539 7.36364C16.3708 7.36364 15.2921 6.13636 15.2921 4.77273C15.2921 3.40909 16.5056 2.18182 17.8539 2.18182C19.2022 2.18182 20.4157 3.40909 20.4157 4.77273C20.4157 6.13636 19.3371 7.36364 17.8539 7.36364Z" fill="#5075D6"/>
<path d="M7.79 20.4535V19.4651H1.14V23.0233C1.14 24.0116 1.9 25 3.04 25H16.15C17.1 25 18.05 24.2093 18.05 23.0233V19.4651H11.4V20.4535H7.79ZM17.1 11.3605H13.3V9.97674L11.4 8H7.6L5.7 9.97674V11.3605H1.9C0.95 11.3605 0 12.1512 0 13.3372V15.7093C0 16.6977 0.76 17.686 1.9 17.686H7.6V15.7093H11.4V17.686H17.1C18.05 17.686 19 16.8953 19 15.7093V13.3372C19 12.1512 18.24 11.3605 17.1 11.3605ZM11.4 11.3605H7.6V9.38372H11.4V11.3605Z" fill="#5075D6"/>
</svg>
