<svg width="30" height="30" viewBox="0 0 30 30" fill="none" xmlns="http://www.w3.org/2000/svg">
<path d="M23.764 10.2273C24.1685 9.54546 24.4382 8.59091 24.4382 7.77273C24.4382 5.18182 22.4157 3 19.7191 3C17.0225 3 15 5.04545 15 7.77273C15 10.5 17.0225 12.5455 19.7191 12.5455C20.6629 12.5455 21.4719 12.2727 22.1461 11.8636L25.5169 15L27 13.5L23.764 10.2273ZM19.8539 10.3636C18.3708 10.3636 17.2921 9.13636 17.2921 7.77273C17.2921 6.40909 18.5056 5.18182 19.8539 5.18182C21.2022 5.18182 22.4157 6.40909 22.4157 7.77273C22.4157 9.13636 21.3371 10.3636 19.8539 10.3636Z" fill="#F3F4F6"/>
<path d="M9.79 23.4535V22.4651H3.14V26.0233C3.14 27.0116 3.9 28 5.04 28H18.15C19.1 28 20.05 27.2093 20.05 26.0233V22.4651H13.4V23.4535H9.79ZM19.1 14.3605H15.3V12.9767L13.4 11H9.6L7.7 12.9767V14.3605H3.9C2.95 14.3605 2 15.1512 2 16.3372V18.7093C2 19.6977 2.76 20.686 3.9 20.686H9.6V18.7093H13.4V20.686H19.1C20.05 20.686 21 19.8953 21 18.7093V16.3372C21 15.1512 20.24 14.3605 19.1 14.3605ZM13.4 14.3605H9.6V12.3837H13.4V14.3605Z" fill="#F3F4F6"/>
</svg>
