<svg width="18" height="18" viewBox="0 0 18 18" fill="none" xmlns="http://www.w3.org/2000/svg">
<path d="M8.9925 1.49939C4.8525 1.49939 1.5 4.85939 1.5 8.99939C1.5 13.1394 4.8525 16.4994 8.9925 16.4994C13.14 16.4994 16.5 13.1394 16.5 8.99939C16.5 4.85939 13.14 1.49939 8.9925 1.49939ZM9 14.9994C5.685 14.9994 3 12.3144 3 8.99939C3 5.68439 5.685 2.99939 9 2.99939C12.315 2.99939 15 5.68439 15 8.99939C15 12.3144 12.315 14.9994 9 14.9994Z" fill="white"/>
<path d="M9.375 5.24939H8.25V9.74939L12.1875 12.1119L12.75 11.1894L9.375 9.18689V5.24939Z" fill="white"/>
</svg>
