<svg width="107" height="25" viewBox="0 0 107 25" fill="none" xmlns="http://www.w3.org/2000/svg">
<path d="M9.79619 24.125C7.81286 24.125 6.08786 23.7667 4.62119 23.05C3.15452 22.3167 2.02952 21.2833 1.24619 19.95C0.462858 18.6167 0.0711915 17.0667 0.0711915 15.3C0.0711915 12.85 0.529525 10.675 1.44619 8.775C2.37952 6.875 3.63786 5.40833 5.22119 4.375C6.80452 3.325 8.56286 2.8 10.4962 2.8C12.2962 2.8 13.6629 3.26667 14.5962 4.2C15.5295 5.11667 15.9962 6.33333 15.9962 7.85C15.9962 8.86667 15.8129 9.68333 15.4462 10.3C15.0962 10.9167 14.5879 11.225 13.9212 11.225C13.4545 11.225 13.0879 11.1167 12.8212 10.9C12.5545 10.6833 12.4212 10.3667 12.4212 9.95C12.4212 9.8 12.4545 9.525 12.5212 9.125C12.6212 8.625 12.6712 8.225 12.6712 7.925C12.6712 6.40833 11.8629 5.65 10.2462 5.65C9.14619 5.65 8.09619 6.00833 7.09619 6.725C6.09619 7.44167 5.28786 8.5 4.67119 9.9C4.05453 11.2833 3.74619 12.9333 3.74619 14.85C3.74619 16.85 4.30453 18.4 5.42119 19.5C6.53786 20.5833 8.18786 21.125 10.3712 21.125C11.4545 21.125 12.5462 20.9917 13.6462 20.725C14.7629 20.4417 15.9962 20.0167 17.3462 19.45C17.5962 19.35 17.8045 19.3 17.9712 19.3C18.2379 19.3 18.4379 19.4 18.5712 19.6C18.7045 19.8 18.7712 20.0583 18.7712 20.375C18.7712 21.3917 18.2212 22.1417 17.1212 22.625C15.9379 23.1417 14.7045 23.525 13.4212 23.775C12.1545 24.0083 10.9462 24.125 9.79619 24.125ZM29.3157 16.325C29.5324 16.325 29.6991 16.4333 29.8157 16.65C29.9324 16.8667 29.9907 17.1417 29.9907 17.475C29.9907 18.275 29.7491 18.75 29.2657 18.9C28.2657 19.25 27.1657 19.45 25.9657 19.5C25.6491 20.9 25.0241 22.025 24.0907 22.875C23.1574 23.7083 22.0991 24.125 20.9157 24.125C19.9157 24.125 19.0574 23.8833 18.3407 23.4C17.6407 22.9167 17.1074 22.275 16.7407 21.475C16.3741 20.675 16.1907 19.8083 16.1907 18.875C16.1907 17.6083 16.4324 16.4833 16.9157 15.5C17.3991 14.5 18.0657 13.725 18.9157 13.175C19.7657 12.6083 20.7074 12.325 21.7407 12.325C23.0074 12.325 24.0241 12.7667 24.7907 13.65C25.5741 14.5167 26.0324 15.5917 26.1657 16.875C26.9491 16.825 27.8824 16.6583 28.9657 16.375C29.0991 16.3417 29.2157 16.325 29.3157 16.325ZM21.1157 21.475C21.6491 21.475 22.1074 21.2583 22.4907 20.825C22.8907 20.3917 23.1574 19.7667 23.2907 18.95C22.7741 18.6 22.3741 18.1417 22.0907 17.575C21.8241 17.0083 21.6907 16.4083 21.6907 15.775C21.6907 15.5083 21.7157 15.2417 21.7657 14.975H21.6407C20.9741 14.975 20.4157 15.3 19.9657 15.95C19.5324 16.5833 19.3157 17.4833 19.3157 18.65C19.3157 19.5667 19.4907 20.2667 19.8407 20.75C20.2074 21.2333 20.6324 21.475 21.1157 21.475ZM37.32 18.425C37.5367 18.425 37.7034 18.525 37.82 18.725C37.9534 18.925 38.02 19.2 38.02 19.55C38.02 20.2167 37.8617 20.7333 37.545 21.1C36.8284 21.9833 36.045 22.7083 35.195 23.275C34.3617 23.8417 33.4117 24.125 32.345 24.125C30.8784 24.125 29.7867 23.4583 29.07 22.125C28.37 20.7917 28.02 19.0667 28.02 16.95C28.02 14.9167 28.2784 12.6 28.795 10C29.3284 7.4 30.1034 5.16667 31.12 3.3C32.1534 1.43333 33.3784 0.499999 34.795 0.499999C35.595 0.499999 36.22 0.874999 36.67 1.625C37.1367 2.35833 37.37 3.41667 37.37 4.8C37.37 6.78333 36.82 9.08333 35.72 11.7C34.62 14.3167 33.1284 16.9083 31.245 19.475C31.3617 20.1583 31.5534 20.65 31.82 20.95C32.0867 21.2333 32.4367 21.375 32.87 21.375C33.5534 21.375 34.1534 21.1833 34.67 20.8C35.1867 20.4 35.845 19.725 36.645 18.775C36.845 18.5417 37.07 18.425 37.32 18.425ZM34.245 2.975C33.8617 2.975 33.4284 3.66667 32.945 5.05C32.4617 6.43333 32.0367 8.15 31.67 10.2C31.3034 12.25 31.1034 14.2167 31.07 16.1C32.2534 14.15 33.195 12.2 33.895 10.25C34.595 8.28333 34.945 6.49167 34.945 4.875C34.945 3.60833 34.7117 2.975 34.245 2.975ZM45.4743 18.425C45.691 18.425 45.8577 18.525 45.9743 18.725C46.1077 18.925 46.1743 19.2 46.1743 19.55C46.1743 20.2167 46.016 20.7333 45.6993 21.1C44.9827 21.9833 44.1993 22.7083 43.3493 23.275C42.516 23.8417 41.566 24.125 40.4993 24.125C39.0326 24.125 37.941 23.4583 37.2243 22.125C36.5243 20.7917 36.1743 19.0667 36.1743 16.95C36.1743 14.9167 36.4326 12.6 36.9493 10C37.4826 7.4 38.2576 5.16667 39.2743 3.3C40.3076 1.43333 41.5326 0.499999 42.9493 0.499999C43.7493 0.499999 44.3743 0.874999 44.8243 1.625C45.291 2.35833 45.5243 3.41667 45.5243 4.8C45.5243 6.78333 44.9743 9.08333 43.8743 11.7C42.7743 14.3167 41.2827 16.9083 39.3993 19.475C39.516 20.1583 39.7077 20.65 39.9743 20.95C40.241 21.2333 40.591 21.375 41.0243 21.375C41.7077 21.375 42.3077 21.1833 42.8243 20.8C43.341 20.4 43.9993 19.725 44.7993 18.775C44.9993 18.5417 45.2243 18.425 45.4743 18.425ZM42.3993 2.975C42.016 2.975 41.5827 3.66667 41.0993 5.05C40.616 6.43333 40.191 8.15 39.8243 10.2C39.4576 12.25 39.2576 14.2167 39.2243 16.1C40.4076 14.15 41.3493 12.2 42.0493 10.25C42.7493 8.28333 43.0993 6.49167 43.0993 4.875C43.0993 3.60833 42.866 2.975 42.3993 2.975ZM46.9845 24.125C45.9511 24.125 45.1261 23.75 44.5095 23C43.8928 22.25 43.5845 21.2667 43.5845 20.05C43.5845 18.7167 43.8928 17.4583 44.5095 16.275C45.1261 15.075 45.9428 14.1167 46.9595 13.4C47.9928 12.6667 49.0845 12.3 50.2345 12.3C50.6011 12.3 50.8428 12.375 50.9595 12.525C51.0928 12.6583 51.2011 12.9083 51.2845 13.275C51.6345 13.2083 52.0011 13.175 52.3845 13.175C53.2011 13.175 53.6095 13.4667 53.6095 14.05C53.6095 14.4 53.4845 15.2333 53.2345 16.55C52.8511 18.4667 52.6595 19.8 52.6595 20.55C52.6595 20.8 52.7178 21 52.8345 21.15C52.9678 21.3 53.1345 21.375 53.3345 21.375C53.6511 21.375 54.0345 21.175 54.4845 20.775C54.9345 20.3583 55.5428 19.6917 56.3095 18.775C56.5095 18.5417 56.7345 18.425 56.9845 18.425C57.2011 18.425 57.3678 18.525 57.4845 18.725C57.6178 18.925 57.6845 19.2 57.6845 19.55C57.6845 20.2167 57.5261 20.7333 57.2095 21.1C56.5261 21.95 55.8011 22.6667 55.0345 23.25C54.2678 23.8333 53.5261 24.125 52.8095 24.125C52.2595 24.125 51.7511 23.9417 51.2845 23.575C50.8345 23.1917 50.4928 22.675 50.2595 22.025C49.3928 23.425 48.3011 24.125 46.9845 24.125ZM47.8845 21.6C48.2511 21.6 48.6011 21.3833 48.9345 20.95C49.2678 20.5167 49.5095 19.9417 49.6595 19.225L50.5845 14.625C49.8845 14.6417 49.2345 14.9083 48.6345 15.425C48.0511 15.925 47.5845 16.5917 47.2345 17.425C46.8845 18.2583 46.7095 19.1417 46.7095 20.075C46.7095 20.5917 46.8095 20.975 47.0095 21.225C47.2261 21.475 47.5178 21.6 47.8845 21.6ZM68.9526 16.325C69.1693 16.325 69.336 16.4333 69.4526 16.65C69.5693 16.8667 69.6276 17.1417 69.6276 17.475C69.6276 17.8917 69.5693 18.2167 69.4526 18.45C69.336 18.6667 69.1526 18.8167 68.9026 18.9C67.9026 19.25 66.8026 19.45 65.6026 19.5C65.2693 20.8833 64.636 22 63.7026 22.85C62.786 23.7 61.7693 24.125 60.6526 24.125C58.9693 24.125 57.7443 23.4833 56.9776 22.2C56.211 20.9167 55.8276 19.0583 55.8276 16.625C55.8276 14.475 56.0943 12.1417 56.6276 9.625C57.161 7.09167 57.936 4.94167 58.9526 3.175C59.986 1.39167 61.211 0.499999 62.6276 0.499999C63.3943 0.499999 64.011 0.833332 64.4776 1.5C64.9443 2.15 65.1776 3 65.1776 4.05C65.1776 5.41667 64.9193 6.775 64.4026 8.125C63.886 9.475 63.0276 10.8917 61.8276 12.375C62.9443 12.4583 63.8526 12.925 64.5526 13.775C65.2526 14.6083 65.6693 15.6417 65.8026 16.875C66.586 16.825 67.5193 16.6583 68.6026 16.375C68.7026 16.3417 68.8193 16.325 68.9526 16.325ZM62.0526 2.975C61.7193 2.975 61.3526 3.475 60.9526 4.475C60.5693 5.45833 60.211 6.8 59.8776 8.5C59.5443 10.2 59.2943 12.0583 59.1276 14.075C60.2276 12.0583 61.1026 10.2833 61.7526 8.75C62.4193 7.2 62.7526 5.825 62.7526 4.625C62.7526 4.09167 62.686 3.68333 62.5526 3.4C62.436 3.11667 62.2693 2.975 62.0526 2.975ZM60.7526 21.475C61.2693 21.475 61.7276 21.2583 62.1276 20.825C62.5276 20.3917 62.7943 19.7667 62.9276 18.95C62.411 18.6 62.011 18.1417 61.7276 17.575C61.461 17.0083 61.3276 16.4083 61.3276 15.775C61.3276 15.5417 61.361 15.225 61.4276 14.825H61.3526C60.6693 14.825 60.0943 15.1667 59.6276 15.85C59.1776 16.5167 58.9526 17.4167 58.9526 18.55C58.9526 19.5 59.1276 20.225 59.4776 20.725C59.8443 21.225 60.2693 21.475 60.7526 21.475ZM80.769 16.325C80.9857 16.325 81.1524 16.4333 81.269 16.65C81.3857 16.8667 81.444 17.1417 81.444 17.475C81.444 17.8917 81.3857 18.2167 81.269 18.45C81.1524 18.6667 80.969 18.8167 80.719 18.9C79.719 19.25 78.619 19.45 77.419 19.5C77.0857 20.8833 76.4524 22 75.519 22.85C74.6024 23.7 73.5857 24.125 72.469 24.125C70.7857 24.125 69.5607 23.4833 68.794 22.2C68.0274 20.9167 67.644 19.0583 67.644 16.625C67.644 14.475 67.9107 12.1417 68.444 9.625C68.9774 7.09167 69.7524 4.94167 70.769 3.175C71.8024 1.39167 73.0274 0.499999 74.444 0.499999C75.2107 0.499999 75.8274 0.833332 76.294 1.5C76.7607 2.15 76.994 3 76.994 4.05C76.994 5.41667 76.7357 6.775 76.219 8.125C75.7024 9.475 74.844 10.8917 73.644 12.375C74.7607 12.4583 75.669 12.925 76.369 13.775C77.069 14.6083 77.4857 15.6417 77.619 16.875C78.4024 16.825 79.3357 16.6583 80.419 16.375C80.519 16.3417 80.6357 16.325 80.769 16.325ZM73.869 2.975C73.5357 2.975 73.169 3.475 72.769 4.475C72.3857 5.45833 72.0274 6.8 71.694 8.5C71.3607 10.2 71.1107 12.0583 70.944 14.075C72.044 12.0583 72.919 10.2833 73.569 8.75C74.2357 7.2 74.569 5.825 74.569 4.625C74.569 4.09167 74.5024 3.68333 74.369 3.4C74.2524 3.11667 74.0857 2.975 73.869 2.975ZM72.569 21.475C73.0857 21.475 73.544 21.2583 73.944 20.825C74.344 20.3917 74.6107 19.7667 74.744 18.95C74.2274 18.6 73.8274 18.1417 73.544 17.575C73.2774 17.0083 73.144 16.4083 73.144 15.775C73.144 15.5417 73.1774 15.225 73.244 14.825H73.169C72.4857 14.825 71.9107 15.1667 71.444 15.85C70.994 16.5167 70.769 17.4167 70.769 18.55C70.769 19.5 70.944 20.225 71.294 20.725C71.6607 21.225 72.0857 21.475 72.569 21.475ZM90.4354 18.425C90.6521 18.425 90.8188 18.525 90.9354 18.725C91.0688 18.925 91.1354 19.2 91.1354 19.55C91.1354 20.2167 90.9771 20.7333 90.6604 21.1C90.0438 21.85 89.1688 22.5417 88.0355 23.175C86.9188 23.8083 85.7188 24.125 84.4354 24.125C82.6854 24.125 81.3271 23.65 80.3604 22.7C79.3938 21.75 78.9104 20.45 78.9104 18.8C78.9104 17.65 79.1521 16.5833 79.6354 15.6C80.1188 14.6 80.7854 13.8083 81.6354 13.225C82.5021 12.6417 83.4771 12.35 84.5604 12.35C85.5271 12.35 86.3021 12.6417 86.8854 13.225C87.4688 13.7917 87.7604 14.5667 87.7604 15.55C87.7604 16.7 87.3438 17.6917 86.5104 18.525C85.6938 19.3417 84.3021 19.9917 82.3354 20.475C82.7521 21.2417 83.5438 21.625 84.7104 21.625C85.4604 21.625 86.3104 21.3667 87.2604 20.85C88.2271 20.3167 89.0604 19.625 89.7604 18.775C89.9604 18.5417 90.1854 18.425 90.4354 18.425ZM84.1354 14.8C83.5188 14.8 82.9938 15.1583 82.5604 15.875C82.1438 16.5917 81.9354 17.4583 81.9354 18.475V18.525C82.9188 18.2917 83.6938 17.9417 84.2604 17.475C84.8271 17.0083 85.1104 16.4667 85.1104 15.85C85.1104 15.5333 85.0188 15.2833 84.8354 15.1C84.6688 14.9 84.4354 14.8 84.1354 14.8ZM98.0778 18.425C98.2612 19.7917 98.5278 21.1417 98.8778 22.475C98.9445 22.6917 98.9778 22.9167 98.9778 23.15C98.9778 23.9 98.5195 24.275 97.6028 24.275C97.0862 24.275 96.6862 24.1333 96.4028 23.85C96.1362 23.5667 95.8862 23.0333 95.6528 22.25L95.6278 22.15C94.9945 22.9333 94.4195 23.4583 93.9028 23.725C93.4028 23.9917 92.8195 24.125 92.1528 24.125C91.1362 24.125 90.2945 23.75 89.6278 23C88.9778 22.2333 88.6528 21.2417 88.6528 20.025C88.6528 18.6917 88.9362 17.4583 89.5028 16.325C90.0695 15.1917 90.8445 14.2667 91.8278 13.55C92.8112 12.8167 93.9112 12.375 95.1278 12.225C95.4445 9.075 96.0445 6.33333 96.9278 4C97.8278 1.66667 99.0195 0.499999 100.503 0.499999C101.219 0.499999 101.811 0.824999 102.278 1.475C102.761 2.125 103.003 3.10833 103.003 4.425C103.003 6.25833 102.553 8.4 101.653 10.85C100.753 13.3 99.5612 15.825 98.0778 18.425ZM100.228 2.95C99.7445 2.95 99.2862 4.18333 98.8528 6.65C98.4362 9.11667 98.1528 11.8 98.0028 14.7C99.8528 10.7 100.778 7.45 100.778 4.95C100.778 4.31667 100.719 3.825 100.603 3.475C100.503 3.125 100.378 2.95 100.228 2.95ZM93.0278 21.6C93.3612 21.6 93.6778 21.475 93.9778 21.225C94.2945 20.975 94.6945 20.4917 95.1778 19.775C95.0112 18.5583 94.9278 17.3 94.9278 16C94.9278 15.4833 94.9362 15.0833 94.9528 14.8C94.0362 15.0667 93.2778 15.675 92.6778 16.625C92.0778 17.575 91.7778 18.625 91.7778 19.775C91.7778 20.9917 92.1945 21.6 93.0278 21.6ZM104.033 24.125C103.3 24.125 102.741 23.925 102.358 23.525C101.991 23.125 101.808 22.6 101.808 21.95C101.808 21.2 102.016 20.6 102.433 20.15C102.866 19.7 103.466 19.475 104.233 19.475C104.966 19.475 105.516 19.6583 105.883 20.025C106.266 20.375 106.458 20.9 106.458 21.6C106.458 22.3667 106.241 22.9833 105.808 23.45C105.375 23.9 104.783 24.125 104.033 24.125Z" fill="white"/>
</svg>
